<?xml version="1.0" standalone="no"?>
<!DOCTYPE svg PUBLIC "-//W3C//DTD SVG 20010904//EN"
 "http://www.w3.org/TR/2001/REC-SVG-20010904/DTD/svg10.dtd">
<svg version="1.0" xmlns="http://www.w3.org/2000/svg"
 width="512.000000pt" height="512.000000pt" viewBox="0 0 512.000000 512.000000"
 preserveAspectRatio="xMidYMid meet">
<metadata>
Created by potrace 1.14, written by Peter Selinger 2001-2017
</metadata>
<g transform="translate(0.000000,512.000000) scale(0.100000,-0.100000)"
fill="#000000" stroke="none">
<path d="M2475 4990 c-33 -4 -71 -10 -85 -14 -49 -15 -195 -80 -198 -88 -2 -4
-9 -8 -14 -8 -28 0 -311 -191 -408 -275 -42 -37 -244 -239 -284 -285 -84 -96
-210 -289 -273 -420 -62 -127 -120 -280 -115 -303 1 -4 -5 -21 -13 -38 -9 -16
-18 -46 -21 -66 -2 -19 -7 -40 -11 -45 -3 -6 -7 -34 -8 -63 -1 -28 -8 -61 -14
-73 -11 -20 -10 -40 4 -88 4 -13 0 -25 -9 -33 -26 -22 -19 -43 31 -93 26 -26
42 -48 36 -48 -7 0 -14 4 -17 9 -8 13 -53 19 -68 9 -22 -14 55 -73 176 -134
140 -70 166 -93 66 -58 -89 31 -233 74 -237 71 -6 -6 17 -26 64 -55 68 -44 82
-61 46 -55 -59 9 -103 7 -103 -6 0 -5 11 -23 25 -39 27 -33 32 -52 12 -52 -17
0 -19 -33 -3 -78 7 -20 11 -43 9 -49 -3 -7 3 -36 13 -65 9 -29 19 -66 21 -82
1 -16 8 -35 14 -42 19 -23 4 -37 -87 -84 -49 -25 -91 -47 -94 -50 -3 -3 -25
-16 -50 -29 -111 -60 -282 -186 -394 -291 -112 -104 -182 -185 -255 -290 -246
-357 -273 -739 -70 -1008 72 -95 220 -196 442 -302 105 -50 320 -136 359 -144
7 -2 20 -5 28 -8 63 -23 203 -53 295 -63 22 -3 63 -9 90 -14 51 -10 440 -8
485 2 14 4 48 9 75 12 64 7 209 42 255 61 19 7 44 15 55 17 11 2 34 11 52 20
18 9 41 18 52 20 12 2 34 16 50 31 16 16 34 25 40 21 19 -11 47 4 60 31 21 46
25 96 25 299 -1 249 13 202 19 -68 3 -109 7 -201 11 -204 18 -19 25 28 27 175
0 89 4 164 8 166 4 3 8 0 9 -7 1 -7 14 -69 29 -139 26 -118 41 -161 44 -127 3
36 7 98 8 134 l1 40 28 -55 c34 -68 62 -75 76 -17 9 33 26 52 26 27 0 -5 11
-10 25 -10 17 0 29 9 40 30 9 17 28 36 43 43 15 6 59 44 98 84 39 40 73 73 76
73 3 0 54 -29 112 -65 217 -133 493 -257 644 -290 12 -3 32 -8 45 -11 143 -35
413 -51 557 -32 226 30 431 145 541 303 36 51 86 160 94 205 16 84 18 120 19
250 0 134 -10 328 -19 375 -2 11 -7 43 -10 70 -10 80 -61 281 -100 395 -52
147 -160 360 -251 493 -95 139 -121 170 -209 258 -121 120 -129 127 -158 138
-16 6 -31 20 -34 30 -5 20 -42 41 -74 41 -11 0 -23 10 -28 24 -13 33 -32 37
-96 21 -72 -19 -72 -19 -36 11 30 25 39 48 23 58 -17 10 -212 -95 -254 -137
-18 -18 -59 -40 -64 -34 -4 4 78 81 196 186 29 26 32 30 15 31 -11 0 -35 -9
-53 -20 -17 -11 -48 -27 -68 -35 l-36 -15 16 23 c9 12 25 39 36 60 19 34 19
38 4 44 -9 3 -31 -1 -50 -10 -19 -9 -34 -12 -34 -7 0 37 -16 55 -50 58 -18 1
-48 11 -68 21 -21 11 -57 24 -82 30 -25 6 -54 14 -65 17 -38 10 -50 12 -66 13
-13 1 -15 9 -10 44 11 78 1 469 -15 550 -2 12 -6 39 -10 62 -52 359 -239 717
-464 890 -159 122 -314 166 -515 145z m200 -24 c42 -6 66 -13 100 -26 17 -6
30 -11 30 -10 0 7 138 -80 175 -109 164 -131 300 -341 383 -592 70 -211 97
-405 99 -708 0 -98 -2 -184 -7 -190 -4 -8 -25 -11 -54 -9 l-46 3 -1 81 c-2
147 -16 349 -29 431 -3 18 -8 50 -11 71 -14 88 -88 347 -104 362 -3 3 -6 12
-8 19 -7 30 -96 198 -141 266 -53 80 -184 217 -252 263 -97 65 -223 109 -348
119 -63 5 -100 17 -63 20 9 1 44 6 77 10 61 8 146 8 200 -1z m-115 -65 c152
-41 234 -92 377 -239 79 -81 125 -145 185 -259 39 -75 97 -212 103 -246 2 -9
6 -21 9 -25 3 -5 7 -19 10 -33 3 -13 15 -60 26 -104 11 -44 22 -96 24 -115 3
-19 7 -44 9 -55 4 -19 8 -47 23 -190 8 -76 12 -264 6 -287 -3 -14 -14 -17 -43
-16 -22 1 -44 7 -50 14 -6 8 -13 44 -16 81 -2 38 -6 95 -8 128 -9 141 -23 238
-50 345 -3 11 -7 28 -9 38 -6 22 -31 115 -46 165 -10 34 -28 77 -89 210 -53
115 -158 265 -245 349 -47 44 -175 138 -190 138 -3 0 -29 11 -56 24 -59 28
-108 38 -205 41 -38 2 -76 3 -84 4 -16 1 -8 13 12 18 137 32 224 36 307 14z
m-125 -72 c152 -37 307 -148 427 -305 101 -132 195 -321 249 -504 13 -41 22
-78 21 -82 -1 -4 3 -19 8 -34 6 -14 12 -41 15 -58 2 -17 6 -40 8 -51 4 -18 9
-49 22 -135 7 -42 17 -182 17 -235 0 -90 2 -86 -43 -83 -22 1 -43 6 -46 12 -6
9 -7 13 -18 111 -3 33 -11 86 -16 118 -6 31 -7 61 -4 66 3 6 1 12 -3 15 -5 3
-9 18 -10 33 -1 40 -55 242 -92 348 -161 452 -453 735 -772 747 -92 3 -90 13
7 45 38 13 165 9 230 -8z m-130 -73 c268 -71 510 -344 648 -733 66 -185 114
-423 119 -582 l3 -84 -42 -4 c-48 -4 -49 -3 -58 57 -3 25 -10 68 -15 95 -5 28
-12 66 -15 85 -3 19 -17 85 -32 145 -80 338 -251 647 -449 811 -137 113 -245
158 -391 163 -38 1 -36 18 5 44 34 21 155 23 227 3z m-130 -80 c11 -3 21 -5
23 -5 1 -1 3 -1 5 0 1 1 28 -10 59 -24 191 -85 357 -267 497 -545 62 -124 147
-389 166 -522 3 -25 10 -63 15 -85 5 -22 11 -63 15 -90 l5 -50 -49 0 -49 0
-18 90 c-9 49 -21 95 -25 101 -5 6 -7 13 -4 16 6 6 -47 188 -81 280 -14 37
-24 69 -23 70 6 7 -137 269 -184 336 -53 77 -149 181 -222 239 -75 60 -254
136 -322 136 -20 0 -15 16 13 44 24 24 30 25 92 19 37 -3 76 -8 87 -10z m-239
-34 c-17 -16 -18 -16 -5 5 7 12 15 20 18 17 3 -2 -3 -12 -13 -22z m-55 -15
c-10 -9 -11 -8 -5 6 3 10 9 15 12 12 3 -3 0 -11 -7 -18z m10 -59 c-23 -37 -50
-54 -32 -20 12 22 39 52 48 52 3 0 -4 -15 -16 -32z m173 17 c136 -27 334 -190
457 -377 88 -134 215 -404 234 -500 2 -9 9 -27 15 -39 10 -17 10 -20 -2 -13
-10 6 -11 5 -2 -7 6 -8 15 -27 19 -44 4 -16 9 -37 11 -45 17 -71 25 -107 29
-142 3 -22 8 -45 11 -49 3 -5 -8 -11 -23 -15 -15 -3 -33 -7 -40 -9 -18 -6 -39
26 -53 80 -45 181 -131 419 -192 535 -27 51 -126 208 -138 220 -3 3 -22 26
-43 53 -92 114 -220 215 -322 253 -27 10 -53 19 -57 20 -5 1 -10 3 -13 4 -8 4
-24 7 -40 9 -12 1 -12 6 -4 28 22 57 36 61 153 38z m-229 -26 c-9 -17 -19 -29
-22 -26 -5 5 25 57 33 57 3 0 -3 -14 -11 -31z m-45 -3 c0 -2 -8 -10 -17 -17
-16 -13 -17 -12 -4 4 13 16 21 21 21 13z m-5 -85 c-14 -29 -35 -49 -35 -36 0
13 34 65 42 65 5 0 2 -13 -7 -29z m48 -12 c-16 -26 -33 -38 -33 -23 0 15 35
62 42 58 5 -3 1 -19 -9 -35z m112 30 c103 -27 186 -81 300 -194 157 -156 248
-296 338 -521 39 -96 95 -262 103 -303 1 -7 8 -35 14 -62 14 -56 10 -67 -22
-63 -13 1 -32 3 -43 3 -16 1 -25 17 -44 79 -87 272 -217 534 -344 690 -51 63
-146 152 -202 190 -70 47 -174 102 -192 102 -17 0 -17 4 7 50 22 44 26 45 85
29z m-225 -43 l-23 -21 19 33 c10 18 20 28 23 21 2 -6 -7 -21 -19 -33z m-49
-9 c-10 -9 -11 -8 -5 6 3 10 9 15 12 12 3 -3 0 -11 -7 -18z m63 -75 c-17 -41
-34 -63 -34 -44 0 23 32 92 41 86 5 -3 2 -22 -7 -42z m-40 21 c-11 -34 -27
-63 -35 -63 -10 0 7 48 23 67 14 18 18 16 12 -4z m-61 -33 c-9 -16 -19 -27
-21 -25 -8 8 20 65 29 59 5 -3 2 -18 -8 -34z m151 3 c-20 -48 -34 -63 -34 -37
0 28 23 74 37 74 9 0 8 -10 -3 -37z m139 0 c203 -96 405 -340 546 -660 49
-111 126 -341 118 -349 -3 -4 -24 -9 -47 -11 -39 -5 -41 -4 -56 34 -18 45 -27
68 -44 108 -8 17 -14 35 -16 42 -5 26 -124 261 -158 311 -20 30 -36 58 -36 63
0 5 -4 9 -8 9 -5 0 -13 8 -18 19 -46 96 -270 307 -371 348 -24 10 -43 23 -43
28 1 24 40 93 52 91 7 -1 43 -16 81 -33z m-333 -7 c0 -2 -7 -9 -15 -16 -13
-11 -14 -10 -9 4 5 14 24 23 24 12z m15 -78 c-4 -13 -9 -31 -11 -40 -5 -18
-24 -25 -24 -9 0 4 5 22 11 40 12 35 34 43 24 9z m49 0 c-4 -13 -11 -34 -17
-48 -10 -23 -11 -24 -14 -4 -2 11 1 32 6 47 13 33 35 37 25 5z m36 -37 c-6
-23 -15 -41 -20 -41 -14 0 -12 22 6 66 20 47 29 31 14 -25z m-137 19 c-3 -10
-11 -25 -19 -31 -17 -14 -17 -11 -3 29 12 34 31 36 22 2z m187 -13 c-4 -19
-12 -42 -18 -53 -10 -17 -11 -17 -12 8 0 33 16 78 29 78 5 0 6 -14 1 -33z
m-244 -12 c-4 -14 -11 -23 -15 -20 -5 3 -4 16 2 29 15 31 22 25 13 -9z m327
19 c93 -48 218 -154 301 -254 95 -116 247 -382 294 -515 16 -48 23 -70 22 -73
0 -1 7 -16 16 -33 8 -17 14 -33 11 -35 -2 -2 -24 -7 -48 -10 l-44 -6 -24 53
c-80 182 -209 402 -302 514 -56 68 -174 180 -225 215 -87 58 -84 54 -66 111 9
27 20 49 24 49 5 0 23 -7 41 -16z m-297 -91 c-9 -52 -18 -73 -28 -67 -5 3 -6
20 -2 37 4 18 7 38 7 45 0 6 7 12 14 12 10 0 13 -8 9 -27z m49 -2 c-8 -18 -13
-40 -14 -58 -1 -7 -6 -13 -12 -13 -11 0 -6 71 6 91 10 15 27 -2 20 -20z m33
-53 l-13 -43 -3 36 c-2 19 3 48 9 65 12 26 13 27 16 7 2 -12 -2 -41 -9 -65z
m-133 45 c-6 -28 -22 -50 -28 -42 -2 2 0 19 5 37 11 40 33 44 23 5z m184 -43
c-13 -56 -29 -75 -29 -33 0 40 20 97 31 86 4 -4 3 -28 -2 -53z m-235 23 c-8
-32 -12 -39 -19 -31 -9 8 6 58 16 58 5 0 6 -12 3 -27z m281 -10 c-11 -64 -17
-83 -26 -83 -12 0 -1 80 13 98 16 18 19 15 13 -15z m-334 -16 c-10 -9 -11 -8
-5 6 3 10 9 15 12 12 3 -3 0 -11 -7 -18z m445 -26 c186 -132 337 -336 487
-656 39 -86 45 -112 24 -112 -7 0 -24 -3 -39 -6 -31 -8 -31 -8 -93 108 -77
144 -157 268 -225 350 -43 51 -173 179 -217 214 -27 21 -43 41 -43 54 0 32 20
97 29 97 4 0 39 -22 77 -49z m-361 -53 c-4 -29 -9 -55 -11 -58 -12 -11 -21 25
-14 52 10 31 10 34 10 48 0 6 5 10 11 10 7 0 8 -18 4 -52z m-49 0 c-3 -24 -5
-44 -5 -45 -1 -2 -6 -3 -12 -3 -6 0 -9 16 -8 38 3 43 6 52 21 52 6 0 8 -16 4
-42z m98 -8 c-1 -54 -10 -73 -23 -51 -9 14 -6 75 4 91 14 22 21 7 19 -40z m45
8 c-2 -52 -10 -89 -18 -83 -10 6 -8 86 2 103 13 20 17 14 16 -20z m-194 -5
c-3 -39 -4 -43 -14 -43 -9 0 -5 45 5 62 9 14 11 9 9 -19z m240 -4 c-2 -12 -5
-39 -7 -60 -2 -34 -16 -55 -19 -29 -5 38 -4 58 4 83 11 32 28 37 22 6z m-293
-41 c-6 -6 -7 0 -4 19 5 21 7 23 10 9 2 -10 0 -22 -6 -28z m331 -11 c-8 -61
-22 -82 -23 -32 0 22 3 50 6 62 10 38 22 16 17 -30z m36 -22 c-1 -31 -7 -59
-12 -62 -8 -5 -6 53 3 115 0 1 2 2 6 2 3 0 4 -25 3 -55z m63 18 c81 -62 241
-239 310 -343 101 -151 195 -330 173 -330 -8 0 -15 -5 -15 -12 0 -6 -3 -9 -6
-5 -3 3 -17 2 -30 -3 -22 -9 -27 -3 -80 83 -130 212 -204 307 -342 442 l-63
62 7 54 c9 77 11 79 46 52z m-376 -65 c-1 -47 -25 -67 -27 -21 -2 34 0 53 7
73 9 25 20 -6 20 -52z m48 6 c1 -22 0 -45 -2 -52 -9 -26 -22 11 -22 63 0 59
20 50 24 -11z m49 -31 c-3 -26 -7 -50 -9 -52 -10 -10 -16 11 -16 56 0 77 1 81
16 61 8 -11 11 -35 9 -65z m-150 35 c-8 -43 -23 -60 -23 -26 0 32 9 58 21 58
5 0 6 -15 2 -32z m194 -37 c3 -34 2 -51 -6 -51 -6 0 -12 11 -12 25 -1 14 -2
35 -3 48 -2 24 3 41 11 34 2 -3 7 -28 10 -56z m-246 -14 c-13 -13 -15 11 -4
40 7 16 8 15 11 -6 2 -13 -1 -28 -7 -34z m287 -33 c-1 -25 -5 -41 -10 -36 -10
10 -17 90 -10 111 9 24 22 -26 20 -75z m39 -5 c1 -38 -2 -67 -5 -64 -12 12
-16 56 -8 100 6 37 5 35 9 35 2 0 4 -32 4 -71z m40 -24 c1 -30 -2 -55 -7 -55
-6 0 -10 28 -10 62 0 75 13 69 17 -7z m-304 -28 c2 -30 -1 -46 -7 -44 -15 5
-31 71 -22 93 11 28 25 4 29 -49z m43 27 c2 -16 6 -38 9 -49 2 -11 0 -26 -4
-34 -12 -19 -26 11 -30 61 -4 61 15 78 25 22z m291 14 c-3 -8 -6 -5 -6 6 -1
11 2 17 5 13 3 -3 4 -12 1 -19z m-387 -33 c0 -25 -4 -45 -10 -45 -11 0 -12 6
-12 45 0 39 1 45 12 45 6 0 10 -20 10 -45z m150 -35 c7 -53 -3 -88 -15 -51 -3
11 -3 25 0 31 3 5 3 10 -2 10 -4 0 -9 19 -10 42 -4 60 19 34 27 -32z m378 -30
c88 -89 209 -252 271 -363 l51 -92 -21 -17 c-35 -29 -72 -23 -89 15 -12 27
-190 272 -209 287 -4 3 -33 33 -65 68 l-60 63 2 60 c2 99 4 99 120 -21z m-576
38 c-2 -10 -8 -18 -13 -18 -11 0 -12 54 -2 64 10 10 21 -24 15 -46z m238 27
c0 -8 1 -16 1 -17 1 -2 5 -27 9 -55 6 -54 -2 -72 -14 -30 -14 46 -18 117 -7
117 6 0 11 -7 11 -15z m197 -22 c-3 -10 -5 -4 -5 12 0 17 2 24 5 18 2 -7 2
-21 0 -30z m-150 -9 c9 -53 10 -124 2 -124 -5 0 -9 12 -10 28 0 15 -2 34 -4
42 -12 57 -12 81 -3 78 6 -2 13 -13 15 -24z m41 -26 c0 -7 3 -37 6 -66 3 -29
1 -50 -4 -47 -5 3 -8 13 -8 23 0 9 -2 36 -5 60 -3 23 -2 42 2 42 4 0 8 -6 9
-12z m-309 -69 c13 -57 12 -62 -8 -50 -14 9 -32 86 -23 96 13 13 21 1 31 -46z
m41 31 c14 -27 29 -110 20 -110 -8 0 -31 55 -45 108 -8 27 10 29 25 2z m67
-43 c1 -7 4 -32 8 -57 9 -59 -9 -37 -32 40 -24 80 -24 88 1 57 12 -16 23 -34
23 -40z m-160 3 c2 -23 0 -40 -6 -40 -13 0 -25 65 -16 80 11 17 18 5 22 -40z
m405 -2 c1 -21 -1 -40 -5 -44 -4 -4 -7 1 -8 12 0 10 -2 34 -3 52 -1 18 1 29 5
25 5 -5 9 -25 11 -45z m33 -23 c3 -32 2 -55 -1 -52 -8 8 -18 123 -10 115 4 -3
9 -32 11 -63z m-229 2 c10 -49 16 -97 11 -97 -6 0 -37 89 -42 118 -7 47 21 29
31 -21z m48 -22 c2 -16 5 -31 6 -32 2 -2 4 -7 5 -13 1 -5 3 -11 4 -12 8 -10 8
-58 0 -58 -5 0 -8 3 -7 8 1 4 -6 31 -15 61 -9 30 -17 64 -17 75 0 29 18 7 24
-29z m-299 15 c3 -5 1 -10 -4 -10 -6 0 -11 5 -11 10 0 6 2 10 4 10 3 0 8 -4
11 -10z m574 -19 c14 -16 38 -42 52 -59 79 -88 248 -328 238 -336 -2 -1 -18
-12 -36 -24 l-32 -22 -30 37 c-235 291 -241 302 -241 383 0 58 11 63 49 21z
m-239 -1 c6 -11 13 -39 16 -62 4 -24 10 -48 16 -55 6 -7 4 -14 -4 -19 -7 -4
-10 -4 -6 1 4 4 4 13 -2 19 -5 7 -11 25 -14 41 -3 17 -10 45 -15 63 -11 36 -7
42 9 12z m51 -52 c17 -65 19 -79 8 -73 -5 4 -7 11 -4 16 4 5 2 9 -2 9 -5 0
-10 10 -10 23 -1 12 -5 32 -8 45 -10 41 4 23 16 -20z m-357 -50 c5 -21 3 -26
-8 -22 -24 9 -38 65 -26 104 2 7 26 -51 34 -82z m39 50 c22 -47 31 -88 19 -88
-11 0 -52 82 -52 105 0 26 17 17 33 -17z m75 -53 c17 -41 27 -75 23 -75 -11 0
-71 114 -71 134 0 36 19 12 48 -59z m66 -39 c15 -38 25 -71 22 -73 -6 -6 -76
140 -76 158 0 27 27 -15 54 -85z m-240 57 c4 -9 3 -20 -2 -25 -6 -6 -11 1 -14
16 -6 29 6 35 16 9z m285 -56 c12 -24 21 -48 21 -53 0 -5 7 -22 15 -38 9 -16
13 -31 10 -34 -4 -4 -85 160 -85 173 0 16 20 -10 39 -48z m70 -75 c16 -39 27
-72 23 -72 -4 0 -13 12 -18 28 -6 15 -21 52 -33 82 -13 30 -18 50 -12 45 5 -6
24 -43 40 -83z m-325 48 c8 -17 24 -46 36 -65 22 -36 13 -56 -13 -27 -25 28
-59 101 -52 112 9 15 12 13 29 -20z m99 -69 c50 -84 57 -102 31 -80 -20 16
-104 144 -104 158 0 26 29 -6 73 -78z m540 -42 c56 -67 117 -157 117 -172 0
-9 -12 -25 -27 -37 l-27 -21 -26 28 c-14 15 -43 50 -65 78 -22 27 -47 57 -56
66 -11 11 -17 38 -18 89 -1 41 -5 79 -7 84 -7 13 70 -67 109 -115z m-673 44
c0 -7 -5 -13 -10 -13 -15 0 -32 50 -24 69 5 12 9 9 20 -14 7 -16 13 -36 14
-42z m394 28 c-6 -6 -24 19 -24 34 1 6 7 1 15 -9 8 -11 12 -22 9 -25z m-187
-64 c29 -45 63 -98 75 -117 l22 -35 -27 24 c-15 14 -27 30 -27 37 0 7 -4 14
-8 16 -10 4 -90 120 -98 143 -4 8 -2 15 2 15 5 0 33 -37 61 -83z m44 6 c13
-21 28 -41 33 -45 6 -4 7 -8 3 -8 -5 0 6 -19 23 -42 l32 -43 -34 37 c-41 45
-101 138 -88 138 4 0 19 -17 31 -37z m1829 -9 c0 -2 -7 -4 -15 -4 -8 0 -15 4
-15 10 0 5 7 7 15 4 8 -4 15 -8 15 -10z m-2048 -17 c13 -13 34 -39 48 -57 29
-39 145 -157 210 -213 51 -44 35 -39 -25 7 -105 81 -173 144 -221 207 -55 72
-62 107 -12 56z m1398 13 c0 -5 -4 -10 -10 -10 -5 0 -10 5 -10 10 0 6 5 10 10
10 6 0 10 -4 10 -10z m154 -11 c-27 -11 -44 -11 -44 0 0 11 40 20 54 12 5 -2
1 -8 -10 -12z m226 12 c0 -10 -26 -9 -36 2 -4 4 2 7 14 7 12 0 22 -4 22 -9z
m172 -13 c-5 -5 -17 -6 -26 -2 -13 5 -14 9 -5 14 16 11 43 0 31 -12z m-1994
-30 c17 -24 39 -54 51 -67 27 -31 26 -35 -1 -20 -52 26 -101 89 -91 117 7 18
9 16 41 -30z m1392 34 c0 -11 -45 -32 -67 -32 -28 0 9 22 65 39 1 1 2 -3 2 -7z
m844 -8 c3 -8 2 -12 -4 -9 -6 3 -10 10 -10 16 0 14 7 11 14 -7z m-724 -13 c0
-9 -45 -31 -65 -31 -26 0 -16 21 17 35 32 13 48 12 48 -4z m226 6 c3 -2 -9
-10 -26 -17 -33 -14 -59 -2 -45 20 6 10 60 8 71 -3z m449 -18 c-8 -11 -16 -11
-34 0 -22 14 -4 33 20 21 11 -6 17 -15 14 -21z m-256 0 c-15 -9 -32 -2 -24 11
3 5 13 6 21 3 12 -4 13 -8 3 -14z m-1574 -31 c16 -24 22 -38 14 -31 -15 12
-53 73 -46 73 2 0 17 -19 32 -42z m1285 27 c0 -8 -15 -21 -32 -28 -56 -23 -81
0 -30 27 35 20 62 20 62 1z m464 -11 c6 -17 -3 -18 -39 -4 -14 5 -24 14 -21
19 8 12 54 1 60 -15z m361 16 c3 -5 -1 -10 -9 -10 -8 0 -18 5 -21 10 -3 6 1
10 9 10 8 0 18 -4 21 -10z m-2289 -58 c22 -25 53 -60 69 -76 17 -17 39 -42 50
-56 l20 -25 -30 25 c-44 37 -175 173 -175 182 0 16 30 -6 66 -50z m965 44
c-13 -15 -60 -30 -68 -22 -5 5 53 34 71 35 5 1 3 -5 -3 -13z m134 4 c8 -13
-66 -43 -77 -32 -5 5 5 16 24 25 39 19 45 20 53 7z m583 -5 c8 -8 -3 -14 -36
-21 -28 -6 -32 -4 -32 16 0 20 4 22 32 16 17 -3 34 -8 36 -11z m470 -23 c6
-20 -37 -13 -47 7 -6 10 -7 21 -4 25 8 8 45 -16 51 -32z m32 28 c0 -5 -2 -10
-4 -10 -3 0 -8 5 -11 10 -3 6 -1 10 4 10 6 0 11 -4 11 -10z m36 -17 c-10 -10
-19 5 -10 18 6 11 8 11 12 0 2 -7 1 -15 -2 -18z m-986 7 c0 -14 -59 -42 -76
-36 -22 9 -16 23 14 34 36 14 62 14 62 2z m360 -19 c0 -13 -69 -43 -84 -38
-30 12 -15 39 29 54 28 10 55 2 55 -16z m226 2 c-2 -2 -11 0 -20 3 -14 5 -15
9 -5 15 12 7 34 -10 25 -18z m241 1 c9 -23 -11 -38 -26 -20 -13 16 -7 36 10
36 5 0 12 -7 16 -16z m279 -26 c-1 -26 -34 -37 -47 -16 -14 22 -10 46 9 50 24
6 39 -8 38 -34z m76 10 c-6 -6 -23 -7 -39 -3 -27 6 -27 7 -9 20 22 17 66 1 48
-17z m-1062 7 c0 -8 -14 -22 -31 -30 -25 -13 -33 -14 -46 -4 -13 12 -12 15 7
31 27 22 70 24 70 3z m432 -26 c-4 -4 -20 -11 -35 -15 -26 -6 -28 -5 -23 22 2
16 5 30 5 32 1 2 14 -5 31 -15 16 -9 26 -20 22 -24z m70 19 c-7 -7 -12 -8 -12
-2 0 6 3 14 7 17 3 4 9 5 12 2 2 -3 -1 -11 -7 -17z m-864 -6 c3 -11 -32 -31
-65 -38 -28 -5 -22 17 9 36 35 21 49 22 56 2z m712 -12 c0 -24 -6 -33 -32 -44
-28 -11 -35 -11 -48 0 -25 24 3 51 78 73 1 1 2 -12 2 -29z m308 -8 c2 -7 -3
-12 -11 -12 -17 0 -49 34 -40 43 8 8 45 -15 51 -31z m-1148 19 c0 -9 -39 -32
-61 -36 -27 -5 -23 8 7 26 26 16 54 21 54 10z m257 -7 c2 -6 -13 -18 -32 -27
-43 -21 -41 -21 -49 -1 -4 10 4 19 27 29 34 15 49 15 54 -1z m353 -13 c0 -23
-71 -49 -77 -28 -8 23 1 37 30 45 38 11 47 7 47 -17z m789 7 c11 -28 6 -38
-19 -38 -18 0 -30 18 -30 46 0 23 40 16 49 -8z m-1022 -23 c-7 -18 -46 -35
-64 -28 -23 9 -14 29 20 45 34 17 54 10 44 -17z m1283 15 c0 -24 -25 -53 -49
-57 -17 -2 -21 2 -21 25 0 15 5 33 12 40 17 17 58 11 58 -8z m-2041 -54 c28
-35 51 -67 51 -72 0 -15 -44 -54 -61 -54 -12 0 -20 14 -29 48 -14 54 -24 142
-17 142 3 0 28 -29 56 -64z m1448 48 c5 -16 -21 -13 -36 4 -11 12 -10 13 10
10 12 -1 24 -8 26 -14z m238 -2 c0 -18 -20 -15 -23 4 -3 10 1 15 10 12 7 -3
13 -10 13 -16z m-2313 -51 c21 -19 48 -41 60 -49 13 -9 25 -19 28 -23 3 -3 47
-34 99 -68 51 -33 89 -61 84 -61 -16 0 -194 99 -243 135 -64 47 -113 101 -105
115 8 12 15 8 77 -49z m1738 18 c0 -33 -75 -52 -87 -22 -7 18 33 57 48 47 5
-3 9 0 9 7 0 8 4 8 15 -1 8 -7 15 -21 15 -31z m832 5 c-4 -35 -25 -59 -45 -51
-16 6 -15 50 3 72 20 24 45 11 42 -21z m-2241 9 c13 -16 12 -17 -3 -4 -17 13
-22 21 -14 21 2 0 10 -8 17 -17z m685 -20 c-27 -23 -66 -31 -66 -13 0 13 73
50 84 42 5 -3 -3 -16 -18 -29z m132 -5 c-13 -9 -29 -18 -35 -18 -7 0 -16 0
-20 -1 -22 -2 -10 23 18 40 25 16 36 18 47 9 11 -10 10 -15 -10 -30z m365 29
c-2 -4 -3 -14 -3 -22 0 -16 -60 -36 -74 -24 -13 12 1 39 26 48 25 9 54 8 51
-2z m452 -20 c-1 -12 -3 -24 -4 -27 -3 -13 -73 -32 -83 -22 -18 18 -3 47 32
63 41 20 58 16 55 -14z m72 7 c10 -9 9 -13 -3 -18 -31 -12 -44 -6 -44 19 0 19
4 23 18 18 9 -4 23 -12 29 -19z m233 6 c21 -21 26 -40 10 -40 -11 0 -50 40
-50 52 0 14 19 9 40 -12z m-1957 -80 c12 -14 -2 -3 -31 25 -28 27 -52 53 -52
58 0 9 35 -26 83 -83z m593 71 c-3 -5 -22 -18 -42 -30 -32 -19 -35 -19 -32 -4
2 10 14 23 28 30 29 15 54 17 46 4z m382 -13 c-2 -13 -7 -23 -13 -23 -5 -1
-20 -4 -32 -9 -32 -10 -45 0 -31 24 7 10 15 17 19 14 4 -2 10 0 14 6 3 5 15
10 26 10 15 0 20 -6 17 -22z m910 4 c2 -7 -2 -10 -12 -6 -9 3 -16 11 -16 16 0
13 23 5 28 -10z m293 8 c1 -5 2 -16 3 -22 3 -19 -25 -59 -35 -52 -13 8 -11 58
3 72 15 15 28 15 29 2z m231 -48 c-73 -91 -125 -113 -72 -29 29 47 92 96 98
77 2 -6 -10 -27 -26 -48z m-1315 22 c8 -21 -21 -44 -54 -44 -33 0 -30 33 5 47
38 15 42 15 49 -3z m223 -3 c0 -10 -7 -24 -15 -31 -8 -7 -15 -9 -15 -4 0 4 -5
3 -12 -4 -8 -8 -15 -9 -25 -1 -20 17 -16 39 10 49 37 15 57 12 57 -9z m220
-11 c0 -24 -6 -33 -26 -40 -41 -16 -54 -12 -54 15 0 20 8 29 33 40 45 20 47
19 47 -15z m330 -11 c0 -5 -11 -2 -25 7 -14 9 -25 20 -25 25 0 5 11 2 25 -7
14 -9 25 -20 25 -25z m246 15 c4 -24 -5 -54 -16 -54 -11 0 -23 57 -15 70 10
16 28 7 31 -16z m-2288 -38 c43 -30 87 -65 97 -77 21 -22 -106 61 -160 105
-53 44 -17 28 63 -28z m2096 39 c3 -8 1 -15 -4 -15 -6 0 -10 7 -10 15 0 8 2
15 4 15 2 0 6 -7 10 -15z m-1304 -20 c-16 -19 -68 -36 -75 -25 -8 13 54 50 72
43 10 -4 11 -9 3 -18z m130 12 c0 -19 -67 -50 -76 -35 -8 13 34 47 59 48 9 0
17 -6 17 -13z m1015 -14 c-2 -16 -4 -31 -4 -34 -1 -8 -49 -29 -66 -29 -10 0
-15 10 -15 30 0 25 6 34 33 45 47 21 56 19 52 -12z m296 1 c1 -8 2 -20 3 -26
4 -26 -7 -30 -20 -7 -18 33 -18 60 1 53 8 -4 16 -12 16 -20z m-1181 11 c0 -11
-46 -45 -62 -45 -25 0 -22 25 5 38 23 11 57 16 57 7z m950 -24 c0 -11 -29 -23
-40 -16 -4 3 -6 14 -3 25 4 16 9 18 24 9 10 -5 19 -14 19 -18z m474 -12 c-9
-18 -23 -39 -30 -47 -8 -7 -14 -18 -14 -23 0 -6 -4 -8 -9 -5 -15 10 1 56 31
88 35 37 46 32 22 -13z m-1810 23 c5 -9 -62 -57 -70 -49 -6 5 46 57 58 57 4 0
9 -4 12 -8z m499 -6 c7 -18 -12 -35 -43 -38 -36 -4 -38 27 -3 40 38 14 40 14
46 -2z m227 -5 c0 -12 -9 -21 -24 -25 -13 -3 -31 -9 -40 -12 -23 -9 -21 32 2
45 29 18 62 13 62 -8z m217 4 c8 -23 -21 -50 -57 -53 -27 -2 -31 0 -28 20 5
37 73 63 85 33z m218 -26 c-6 -31 -23 -47 -56 -54 -37 -8 -42 -4 -34 28 7 25
39 44 77 46 12 1 16 -5 13 -20z m310 -6 l18 -28 -21 19 c-12 11 -22 23 -22 28
0 14 7 9 25 -19z m-1315 3 c0 -14 -68 -52 -77 -42 -8 7 47 56 63 56 8 0 14 -6
14 -14z m120 1 c0 -17 -57 -50 -72 -41 -7 5 -2 15 18 31 32 25 54 30 54 10z
m347 -4 c6 -16 -43 -47 -62 -39 -24 9 -17 33 13 44 31 12 44 10 49 -5z m213
-8 c0 -21 -29 -45 -56 -45 -38 0 -32 38 8 55 35 14 48 12 48 -10z m896 -9 c-8
-19 -12 -36 -10 -39 3 -2 -2 -10 -11 -17 -14 -11 -15 -8 -12 26 3 46 13 64 33
64 12 0 12 -4 0 -34z m-1696 15 c0 -12 -69 -55 -77 -48 -7 8 47 57 63 57 8 0
14 -4 14 -9z m364 -15 c-4 -12 -53 -36 -70 -36 -12 0 -1 31 14 39 27 16 62 14
56 -3z m644 -18 c-2 -25 -9 -33 -32 -39 -60 -16 -70 32 -12 57 44 19 48 18 44
-18z m332 3 c0 -35 -14 -47 -62 -56 -36 -7 -37 -7 -32 21 6 35 38 64 70 64 20
0 24 -5 24 -29z m297 -20 c-19 -45 -27 -46 -27 -4 0 24 5 43 13 46 19 6 26
-14 14 -42z m458 33 c-23 -18 -104 -60 -93 -49 9 10 101 64 108 64 3 0 -4 -7
-15 -15z m-2941 -15 c20 -12 36 -23 36 -25 0 -5 -44 18 -70 35 -27 19 -2 11
34 -10z m2703 -36 c-34 -32 -67 -65 -73 -73 -7 -8 -15 -13 -18 -10 -8 9 74
100 108 121 52 32 47 22 -17 -38z m-1987 42 c0 -8 -54 -55 -64 -55 -5 0 5 14
22 30 30 28 42 36 42 25z m615 -4 c7 -12 -34 -41 -57 -41 -10 0 -18 7 -18 15
0 26 61 47 75 26z m213 -13 c-2 -19 -10 -24 -40 -26 -29 -2 -38 1 -38 12 0 19
27 35 58 36 19 0 23 -5 20 -22z m692 -10 c0 -5 -7 -8 -15 -8 -15 0 -20 21 -8
33 7 7 23 -11 23 -25z m-1250 7 c0 -15 -40 -30 -62 -23 -8 3 -1 11 17 21 38
20 45 21 45 2z m765 -28 c-7 -17 -62 -40 -69 -28 -20 31 36 83 62 57 7 -7 10
-20 7 -29z m321 21 c-3 -13 -5 -28 -5 -35 -1 -13 -58 -33 -77 -26 -6 2 -8 17
-6 33 3 23 11 32 36 39 49 15 56 13 52 -11z m362 -10 c1 -23 -2 -28 -8 -18
-12 19 -13 50 -2 50 5 0 9 -14 10 -32z m-1568 15 c0 -11 -62 -45 -69 -38 -3 4
5 15 19 25 26 20 50 26 50 13z m240 -3 c0 -12 -33 -30 -54 -30 -23 0 -19 15 7
28 28 14 47 15 47 2z m1289 -22 c-1 -31 -1 -31 -8 -8 -5 14 -6 28 -4 33 9 15
13 6 12 -25z m679 5 c-8 -7 -54 -28 -104 -45 -49 -17 -141 -57 -204 -90 -130
-66 -115 -49 38 43 103 62 245 121 270 111 11 -4 11 -7 0 -19z m-1864 -20
c-24 -17 -54 -17 -54 2 0 17 63 37 69 22 2 -6 -4 -16 -15 -24z m236 17 c0 -22
-60 -45 -72 -27 -10 16 2 35 25 40 42 8 47 7 47 -13z m-725 -20 c-10 -11 -25
-20 -34 -20 -11 0 -7 8 13 25 33 29 48 25 21 -5z m930 0 c0 -19 -7 -26 -33
-31 -52 -10 -58 31 -8 51 30 12 41 7 41 -20z m310 -8 c-5 -30 -21 -42 -56 -42
-22 0 -26 5 -26 26 0 20 7 29 30 39 41 17 58 9 52 -23z m312 16 c24 -39 2 -71
-56 -83 l-33 -7 7 33 c10 52 62 88 82 57z m334 -20 c-11 -18 -26 -35 -33 -37
-9 -3 -8 3 3 20 9 13 19 30 23 37 4 6 12 12 18 12 5 0 1 -15 -11 -32z m-1721
16 c0 -11 -34 -33 -50 -33 -10 -1 -6 6 10 19 26 20 40 25 40 14z m120 -4 c0
-10 -41 -30 -61 -30 -16 0 1 21 25 30 29 12 36 12 36 0z m337 -9 c1 -14 -6
-20 -28 -23 -37 -6 -58 16 -32 31 29 17 59 13 60 -8z m-1096 -36 c52 -25 83
-43 69 -39 -51 12 -193 84 -166 84 2 0 45 -20 97 -45z m884 35 c6 -10 -55 -30
-69 -22 -10 5 32 31 51 32 6 0 14 -4 18 -10z m423 -13 c4 -21 -36 -39 -60 -26
-20 11 -14 36 10 42 29 8 47 2 50 -16z m297 -12 c0 -25 -4 -29 -32 -32 -29 -4
-33 -1 -33 20 0 15 8 28 23 35 31 15 42 9 42 -23z m-1104 4 c-13 -11 -26 -17
-29 -14 -7 6 29 34 43 34 6 0 -1 -9 -14 -20z m1421 -14 c-2 -16 -7 -33 -11
-38 -11 -11 -71 -27 -72 -19 0 4 -2 15 -4 26 -5 24 38 64 67 62 19 -1 22 -6
20 -31z m364 -9 c-14 -33 -31 -53 -21 -23 19 54 26 69 31 64 3 -2 -2 -21 -10
-41z m641 30 c14 -14 -15 -24 -82 -30 l-70 -6 40 25 c38 24 94 29 112 11z
m-1930 -13 c5 -14 -52 -27 -69 -17 -8 5 -3 12 17 20 33 14 47 13 52 -3z m-907
-19 c0 -2 -9 0 -20 6 -11 6 -20 13 -20 16 0 2 9 0 20 -6 11 -6 20 -13 20 -16z
m570 16 c0 -5 -3 -10 -7 -10 -5 0 -19 -3 -33 -6 l-25 -5 25 15 c30 18 40 20
40 6z m118 -2 c-6 -16 -46 -29 -53 -17 -4 5 4 13 17 18 32 13 40 13 36 -1z
m432 -8 c0 -16 -7 -20 -35 -20 -22 0 -35 5 -35 13 0 20 10 27 42 27 21 0 28
-5 28 -20z m303 13 c3 -5 1 -18 -4 -30 -11 -31 -79 -34 -79 -3 0 10 8 24 18
29 20 12 59 14 65 4z m992 -30 c-33 -21 -69 -45 -79 -55 -11 -10 -24 -18 -28
-18 -14 0 56 58 103 85 68 38 71 30 4 -12z m-1970 17 c-3 -5 -16 -15 -28 -21
-21 -10 -21 -9 2 10 25 23 36 27 26 11z m1277 -8 c7 -31 -4 -51 -32 -60 -32
-11 -46 -5 -52 23 -2 13 4 26 18 35 31 22 62 22 66 2z m916 8 c-2 -6 -52 -33
-112 -60 -60 -28 -103 -44 -97 -36 10 12 71 46 91 52 12 3 87 35 100 44 20 12
22 12 18 0z m-1834 -9 c7 -10 -17 -21 -45 -21 -24 0 -25 17 -1 23 29 8 41 7
46 -2z m221 -11 c0 -17 -37 -25 -63 -15 -16 6 -16 7 1 19 23 18 62 15 62 -4z
m292 4 c3 -8 -1 -23 -10 -32 -14 -13 -20 -14 -44 -3 l-28 13 24 19 c28 23 50
24 58 3z m-1552 -25 c17 -6 39 -13 50 -15 23 -4 40 -8 78 -19 32 -9 37 -28 5
-20 -13 2 -41 7 -63 10 -47 6 -112 35 -119 52 -5 12 -2 12 49 -8z m821 14 c-3
-4 -12 -8 -19 -9 -7 -1 -21 -5 -32 -9 -14 -4 -12 -2 5 9 25 15 59 22 46 9z
m123 -14 c-8 -5 -27 -8 -44 -8 l-30 1 35 12 c36 14 62 10 39 -5z m217 6 c15
-11 16 -15 4 -15 -8 -1 -23 -3 -34 -5 -10 -2 -25 -1 -33 2 -12 5 -10 9 8 19
30 17 31 17 55 -1z m297 -4 c3 -13 -2 -22 -17 -28 -27 -13 -46 -6 -46 17 0 32
55 42 63 11z m392 -1 c9 -27 -8 -47 -45 -52 -24 -4 -30 -1 -30 14 0 53 61 83
75 38z m405 -2 c30 -33 26 -54 -12 -61 -18 -3 -41 -9 -52 -13 -16 -6 -17 -3
-11 27 16 72 38 86 75 47z m795 3 c-11 -12 -38 -23 -60 -26 -22 -3 -47 -7 -55
-9 -8 -1 -37 -6 -65 -11 -27 -4 -54 -10 -60 -14 -5 -3 -12 -6 -15 -7 -9 -1
-90 -25 -108 -31 -12 -4 -14 -3 -7 5 15 16 173 75 235 87 14 3 41 9 60 13 19
4 49 9 65 10 l30 3 -20 -20z m-1295 -19 c0 -28 -15 -43 -48 -48 -29 -5 -32 -3
-32 20 0 20 8 29 33 40 36 15 47 12 47 -12z m1400 13 c22 -13 23 -14 5 -15
-11 -1 -29 -3 -39 -5 -28 -5 -39 4 -25 21 14 17 27 17 59 -1z m-1790 -15 c0
-11 -3 -20 -7 -21 -5 0 -15 -2 -24 -4 -9 -1 -22 1 -30 5 -19 12 7 40 37 40 17
0 24 -6 24 -20z m796 -4 c-10 -53 -44 -82 -84 -68 -30 10 2 77 41 85 45 9 47
8 43 -17z m-1101 5 c-18 -17 -70 -18 -60 -1 3 6 20 10 38 10 19 0 27 -4 22 -9z
m-248 -7 c-3 -3 -12 -4 -19 -1 -8 3 -5 6 6 6 11 1 17 -2 13 -5z m463 -4 c0
-13 -48 -32 -61 -24 -23 14 -8 34 26 34 19 0 35 -5 35 -10z m377 -6 c5 -16
-25 -44 -48 -44 -13 0 -19 7 -19 24 0 13 6 27 13 30 19 8 50 2 54 -10z m-689
1 c-10 -10 -68 -14 -63 -4 4 5 20 9 37 9 17 0 29 -2 26 -5z m212 -16 c0 -9 -7
-11 -35 -11 -28 0 -35 2 -35 11 0 11 38 19 58 13 6 -2 12 -8 12 -13z m385 3
c8 -20 -13 -42 -41 -42 -32 0 -41 20 -17 40 26 21 50 21 58 2z m490 -2 c-7
-35 -24 -58 -50 -62 -31 -6 -45 10 -34 39 9 25 29 38 63 41 20 1 24 -2 21 -18z
m-2085 -7 c32 -8 78 -43 59 -44 -78 -7 -127 6 -163 43 -18 20 -18 20 30 13 27
-3 60 -9 74 -12z m3199 8 c10 -1 11 -4 2 -15 -12 -14 -151 -20 -151 -6 0 16
82 28 149 21z m-2089 -11 c0 -6 -14 -10 -31 -10 -16 0 -28 3 -25 8 7 11 56 13
56 2z m385 -15 c0 -15 -7 -20 -30 -20 -34 0 -48 30 -18 38 32 8 48 2 48 -18z
m482 1 c-1 -13 -9 -31 -16 -40 -15 -17 -56 -22 -65 -7 -11 17 13 59 36 64 46
9 49 7 45 -17z m1031 10 c-15 -8 -39 -17 -55 -20 -15 -4 -38 -9 -50 -11 -13
-3 -33 -7 -45 -10 -13 -3 -35 -7 -50 -10 -15 -3 -38 -9 -52 -15 -15 -5 -26 -7
-26 -5 0 2 -11 0 -25 -5 -14 -5 -25 -7 -25 -5 0 10 181 67 247 80 14 2 27 6
29 7 2 2 20 5 41 6 l38 2 -27 -14z m-1998 -8 c0 -4 -15 -8 -32 -8 -24 0 -29 3
-19 9 17 11 51 10 51 -1z m390 -3 c16 -19 13 -22 -25 -27 -21 -2 -31 2 -33 14
-3 14 7 21 39 27 4 0 12 -6 19 -14z m1880 -16 c0 -4 -9 -5 -20 -2 -11 3 -20
12 -20 19 0 12 4 12 20 2 11 -7 20 -16 20 -19z m-3056 0 c15 -6 3 -8 -42 -7
-38 1 -67 6 -73 15 -10 11 -2 12 41 7 29 -3 62 -10 74 -15z m1096 -5 c0 -16
-37 -19 -60 -4 -12 7 -10 11 10 18 30 11 50 5 50 -14z m554 -3 c-6 -30 -21
-42 -48 -39 -44 6 -19 66 28 66 21 0 24 -4 20 -27z m-644 10 c3 -1 -2 -6 -10
-11 -19 -12 -60 -13 -60 -1 0 15 29 20 70 12z m548 -30 c-2 -21 -9 -26 -33
-28 -48 -4 -56 40 -11 57 31 11 47 1 44 -29z m556 23 c18 -47 -1 -69 -69 -80
-21 -3 -46 -7 -57 -9 -25 -5 -33 17 -16 51 21 44 129 73 142 38z m-1214 -6 c0
-4 -14 -8 -31 -8 -17 0 -28 4 -24 10 7 11 55 9 55 -2z m2034 3 c14 -1 16 -4 7
-15 -8 -10 -39 -14 -109 -15 -86 -1 -94 1 -73 13 13 7 44 14 69 15 25 1 47 3
49 5 3 2 12 3 21 1 9 -2 25 -4 36 -4z m-2568 -70 c9 -31 18 -59 20 -63 3 -4
-1 -10 -7 -13 -12 -8 -109 90 -109 111 0 19 28 32 56 26 19 -3 27 -15 40 -61z
m1097 56 c7 -19 -6 -37 -31 -42 -26 -5 -36 8 -27 35 7 23 50 28 58 7z m1017 9
c0 -2 -7 -6 -15 -10 -8 -3 -15 -1 -15 4 0 6 7 10 15 10 8 0 15 -2 15 -4z
m-2443 -20 c4 -3 -5 -7 -18 -7 -13 -1 -37 -3 -54 -5 -26 -2 -28 -1 -13 10 16
12 74 14 85 2z m1338 -11 c0 -26 -37 -32 -59 -9 -21 20 -8 32 32 30 20 -1 27
-6 27 -21z m563 17 c10 -7 10 -15 2 -38 -13 -33 -26 -44 -57 -44 -30 0 -34 11
-16 47 13 27 24 36 53 42 3 0 11 -3 18 -7z m1114 -4 c21 -6 37 -15 36 -20 -4
-12 -8 -12 -63 -3 -43 6 -53 14 -38 28 9 10 20 9 65 -5z m-3155 -11 c11 -12
-3 -18 -49 -23 -34 -4 -50 0 -67 14 -23 18 -23 18 43 17 36 -1 69 -5 73 -8z
m1293 -7 c0 -22 -25 -27 -50 -10 -13 9 -13 11 0 20 25 17 50 12 50 -10z m85 0
c0 -18 -33 -26 -47 -12 -6 6 -7 15 -3 22 10 16 50 8 50 -10z m-1527 -17 c11
-15 10 -19 -5 -25 -36 -14 -60 -8 -71 16 -6 13 -8 26 -5 29 10 11 69 -3 81
-20z m1067 17 c4 -6 -5 -9 -19 -8 -15 1 -26 6 -26 10 0 12 38 10 45 -2z m95 0
c8 -5 12 -12 8 -15 -9 -9 -59 6 -52 16 7 12 25 11 44 -1z m100 -5 c12 -14 9
-16 -23 -13 -36 2 -44 8 -30 21 11 12 40 7 53 -8z m95 4 c3 -4 0 -11 -5 -14
-15 -9 -62 3 -56 14 7 11 55 11 61 0z m732 -6 c2 -5 -1 -22 -6 -36 -8 -21 -17
-27 -39 -27 -16 0 -31 3 -35 6 -10 10 14 63 31 67 25 5 46 1 49 -10z m812 12
c-8 -7 -172 -45 -177 -40 -4 4 62 23 108 32 13 2 27 6 29 9 2 2 13 4 24 4 11
0 18 -2 16 -5z m-2414 -13 c11 -7 77 -89 88 -108 3 -6 1 -11 -6 -11 -7 -1 -25
-4 -42 -8 -27 -5 -34 -1 -72 44 l-43 49 28 21 c30 23 33 24 47 13z m1505 -22
c0 -23 -26 -39 -52 -32 -28 7 -19 45 12 53 31 7 40 3 40 -21z m-1725 10 c-3
-5 -12 -10 -18 -10 -7 0 -6 4 3 10 19 12 23 12 15 0z m2875 -1 c0 -5 -6 -9
-12 -10 -7 -1 -26 -2 -43 -4 -72 -7 -195 -9 -201 -2 -4 4 -1 7 7 8 22 1 104
10 106 12 6 7 143 3 143 -4z m125 -6 c32 -5 45 -12 45 -24 0 -7 -16 -9 -52 -3
-29 4 -61 7 -71 6 -9 0 -15 4 -11 9 9 15 47 28 59 21 6 -4 19 -8 30 -9z m120
7 c3 -5 -1 -10 -10 -10 -9 0 -13 5 -10 10 3 6 8 10 10 10 2 0 7 -4 10 -10z
m-1495 -15 c0 -16 -55 -22 -64 -6 -8 13 5 21 36 21 18 0 28 -5 28 -15z m-1700
-4 c0 -12 -25 -21 -60 -21 -30 0 -49 15 -28 22 26 9 88 8 88 -1z m1080 -21 c0
-5 -9 -10 -20 -10 -11 0 -20 5 -20 10 0 6 9 10 20 10 11 0 20 -4 20 -10z m90
-5 c0 -9 -8 -10 -40 -6 -5 0 -10 6 -10 12 0 6 11 9 25 7 14 -2 25 -7 25 -13z
m91 0 c0 -11 -28 -16 -47 -8 -8 3 -11 9 -8 14 7 12 55 6 55 -6z m84 6 c3 -5 1
-12 -5 -16 -13 -8 -50 3 -50 16 0 12 47 12 55 0z m90 0 c7 -12 -28 -23 -49
-15 -9 3 -13 10 -10 15 7 12 51 12 59 0z m76 -1 c6 0 7 -4 4 -10 -5 -8 -22 -8
-53 -1 -2 1 0 6 3 12 4 6 14 8 22 5 8 -3 19 -6 24 -6z m651 -19 c-4 -42 -28
-60 -65 -51 -18 4 -44 11 -59 14 -16 4 -28 13 -28 20 0 17 72 42 120 41 31 0
35 -3 32 -24z m1072 -10 c3 -5 -12 -4 -34 1 -39 10 -47 18 -34 31 7 7 59 -18
68 -32z m-3354 16 c0 -20 -44 -40 -69 -32 -23 7 -28 30 -8 38 26 11 77 7 77
-6z m150 5 c0 -11 -46 -32 -68 -32 -10 1 -3 9 18 20 39 21 50 24 50 12z m1564
0 c6 -10 -30 -9 -40 1 -4 4 2 7 14 7 11 0 23 -4 26 -8z m1257 -3 c-14 -5 -41
-9 -60 -9 -20 1 -72 -1 -115 -5 -92 -6 -97 1 -10 13 91 13 215 13 185 1z m202
-5 c20 -3 37 -10 37 -16 0 -7 -26 -9 -76 -5 -83 7 -109 16 -78 27 19 7 46 6
117 -6z m-2783 -64 c0 -10 -45 -29 -61 -26 -41 6 -50 36 -23 75 l16 23 34 -33
c19 -18 34 -36 34 -39z m718 61 c6 -1 12 -5 12 -10 0 -12 -40 -5 -53 8 -6 6
-3 8 9 6 11 -2 25 -4 32 -4z m692 0 c0 -10 -26 -9 -36 2 -4 4 2 7 14 7 12 0
22 -4 22 -9z m300 -9 c0 -11 -39 -12 -45 -1 -4 5 5 9 19 9 14 0 26 -4 26 -8z
m-1940 -27 c-37 -27 -40 -29 -40 -17 0 9 50 41 64 42 6 0 -5 -11 -24 -25z
m1209 6 c7 -5 11 -13 7 -19 -8 -14 -46 -3 -46 14 0 16 18 18 39 5z m1541 5 c0
-9 -50 -12 -62 -5 -8 6 1 9 25 9 20 0 37 -2 37 -4z m407 -11 c20 -8 33 -18 30
-21 -9 -10 -71 4 -93 21 -18 14 -18 14 4 15 12 0 39 -7 59 -15z m-3415 -9 c13
-10 15 -15 6 -24 -14 -14 -38 -16 -38 -3 0 5 -3 16 -6 25 -7 20 14 21 38 2z
m148 5 c0 -5 -12 -19 -26 -30 -22 -17 -30 -19 -41 -9 -13 10 -12 15 7 30 24
19 60 24 60 9z m1240 -1 c0 -5 -6 -10 -14 -10 -8 0 -18 5 -21 10 -3 6 3 10 14
10 12 0 21 -4 21 -10z m170 0 c-20 -13 -50 -13 -50 0 0 6 15 10 33 10 24 0 28
-3 17 -10z m76 3 c-10 -11 -36 -12 -36 -2 0 5 10 9 22 9 12 0 18 -3 14 -7z
m77 0 c-7 -2 -21 -2 -30 0 -10 3 -4 5 12 5 17 0 24 -2 18 -5z m1530 -3 c4 0 7
-5 7 -11 0 -16 -173 0 -189 17 -3 4 35 4 84 0 50 -3 93 -6 98 -6z m-2943 -3
c0 -2 -10 -12 -22 -23 l-23 -19 19 23 c18 21 26 27 26 19z m930 -7 c0 -5 -4
-10 -10 -10 -5 0 -10 5 -10 10 0 6 5 10 10 10 6 0 10 -4 10 -10z m-542 -36
c-4 -3 -12 5 -18 18 -12 22 -12 22 6 6 10 -10 15 -20 12 -24z m628 23 c4 -4
-5 -7 -20 -7 -15 0 -25 4 -22 9 7 10 31 9 42 -2z m483 -7 c-7 -5 -19 -6 -26
-3 -11 5 -12 8 -2 13 7 5 19 6 26 3 11 -5 12 -8 2 -13z m91 0 c-7 -4 -22 -5
-33 -2 -20 5 -20 6 -1 12 24 9 51 1 34 -10z m-1235 -31 c9 -26 2 -32 -36 -32
-21 0 -37 7 -50 24 -20 27 -16 35 21 41 33 5 57 -7 65 -33z m492 35 c-3 -3
-12 -4 -19 -1 -8 3 -5 6 6 6 11 1 17 -2 13 -5z m583 -4 c0 -5 -11 -10 -25 -10
-14 0 -25 5 -25 10 0 6 11 10 25 10 14 0 25 -4 25 -10z m1662 -5 c20 -8 32
-35 16 -35 -24 0 -118 34 -118 43 0 9 72 4 102 -8z m123 -15 c8 -13 -1 -13
-26 0 -10 6 -19 15 -19 21 0 11 35 -5 45 -21z m-3325 12 c0 -5 -11 -19 -24
-31 -29 -27 -47 -10 -20 20 17 19 44 26 44 11z m3005 -2 c6 -1 1 -5 -10 -9
-18 -8 -136 3 -160 14 -8 4 132 0 170 -5z m-3138 -11 c13 -13 5 -49 -12 -49
-7 0 -18 7 -25 15 -10 12 -10 18 0 30 15 18 22 19 37 4z m1353 -5 c0 -2 -7 -4
-15 -4 -8 0 -15 4 -15 10 0 5 7 7 15 4 8 -4 15 -8 15 -10z m80 7 c0 -11 -30
-19 -47 -14 -24 8 -13 23 17 23 17 0 30 -4 30 -9z m50 -1 c0 -5 -5 -10 -11
-10 -5 0 -7 5 -4 10 3 6 8 10 11 10 2 0 4 -4 4 -10z m-1003 -22 c31 -29 29
-45 -8 -53 -24 -5 -36 -2 -55 16 -38 36 -32 49 30 58 6 0 20 -9 33 -21z m2832
-14 c9 -3 11 -8 5 -14 -6 -6 -28 -4 -59 5 -80 24 -81 25 -66 34 8 5 33 3 60
-6 25 -8 52 -17 60 -19z m-3139 19 c-1 -18 -37 -55 -44 -45 -4 6 2 20 14 32
21 21 30 25 30 13z m1100 -14 c0 -10 -12 -11 -34 -3 -9 3 -14 10 -11 14 6 10
45 1 45 -11z m390 10 c0 -5 -9 -9 -20 -9 -11 0 -20 4 -20 8 0 4 9 8 20 9 11 1
20 -2 20 -8z m1403 -8 c10 -10 -65 -4 -108 10 -22 7 -14 8 35 4 35 -3 68 -9
73 -14z m407 -31 c0 -6 -16 -4 -36 5 -20 8 -38 15 -40 15 -2 0 -4 7 -4 15 0
13 6 12 40 -5 22 -11 40 -25 40 -30z m-1965 30 c3 -5 -1 -10 -10 -10 -9 0 -13
5 -10 10 3 6 8 10 10 10 2 0 7 -4 10 -10z m80 0 c-3 -5 -17 -10 -31 -10 -14 0
-22 4 -19 10 3 6 17 10 31 10 14 0 22 -4 19 -10z m-1207 -33 c28 -26 28 -31
-3 -45 -35 -16 -41 -15 -65 10 -26 28 -25 47 3 57 25 10 32 7 65 -22z m807 23
l20 -9 -20 0 c-11 0 -27 4 -35 9 -13 9 -13 10 0 9 8 0 24 -4 35 -9z m622 4
c-3 -3 -12 -4 -19 -1 -8 3 -5 6 6 6 11 1 17 -2 13 -5z m-1752 -35 c0 -15 -7
-25 -18 -27 -22 -4 -33 24 -17 43 18 21 35 13 35 -16z m1045 21 c8 -5 11 -10
5 -10 -5 0 -17 5 -25 10 -8 5 -10 10 -5 10 6 0 17 -5 25 -10z m319 1 c9 -6 10
-10 2 -16 -16 -9 -44 2 -36 15 8 12 16 12 34 1z m306 -1 c-28 -12 -37 -12 -30
0 3 6 16 10 28 9 21 0 21 -1 2 -9z m700 0 c3 -5 1 -10 -4 -10 -6 0 -11 5 -11
10 0 6 2 10 4 10 3 0 8 -4 11 -10z m518 3 c-7 -2 -19 -2 -25 0 -7 3 -2 5 12 5
14 0 19 -2 13 -5z m42 -11 c-3 -3 -11 0 -18 7 -9 10 -8 11 6 5 10 -3 15 -9 12
-12z m248 -4 c39 -12 53 -34 15 -25 -86 19 -128 33 -128 40 0 10 51 3 113 -15z
m-2592 -10 c25 -32 24 -45 -8 -53 -21 -5 -31 -1 -45 17 -10 13 -18 27 -18 31
0 6 31 23 48 26 2 1 12 -9 23 -21z m712 15 c-7 -2 -19 -2 -25 0 -7 3 -2 5 12
5 14 0 19 -2 13 -5z m-78 -23 c-3 -4 -15 -6 -27 -2 -21 5 -21 6 -2 12 21 8 37
3 29 -10z m2139 5 c31 -13 49 -35 29 -35 -21 0 -92 34 -87 41 7 12 16 11 58
-6z m-3454 -17 c0 -12 -3 -18 -7 -14 -11 10 -12 36 -2 36 5 0 9 -10 9 -22z
m263 -6 c-3 -12 -9 -22 -14 -22 -12 0 -11 7 3 30 15 24 19 21 11 -8z m1279 6
c-6 -6 -19 -7 -29 -3 -17 7 -17 8 2 15 24 9 41 2 27 -12z m72 10 c-7 -11 -32
-10 -39 2 -3 6 4 9 19 8 13 -1 22 -6 20 -10z m1005 -3 c6 -3 19 -8 28 -10 10
-2 40 -12 67 -23 39 -15 45 -20 30 -26 -18 -7 -81 -17 -129 -19 -11 0 -22 -4
-25 -8 -12 -18 -30 10 -36 55 l-7 48 31 -5 c17 -3 36 -8 41 -12z m358 9 c-3
-3 -12 -4 -19 -1 -8 3 -5 6 6 6 11 1 17 -2 13 -5z m236 -17 c26 -6 44 -14 39
-19 -7 -7 -142 28 -142 38 0 4 18 1 103 -19z m-2619 -20 c22 -30 20 -36 -19
-43 -20 -3 -35 2 -51 17 -31 29 -30 35 4 47 35 13 42 11 66 -21z m646 18 c7
-8 8 -15 2 -15 -5 0 -15 7 -22 15 -7 8 -8 15 -2 15 5 0 15 -7 22 -15z m1294
-47 c4 -20 3 -28 -7 -28 -7 0 -14 8 -15 18 -1 9 -3 26 -6 37 -2 11 -1 24 2 29
6 10 14 -10 26 -56z m1031 51 c11 -17 -1 -21 -15 -4 -8 9 -8 15 -2 15 6 0 14
-5 17 -11z m-1875 -8 c0 -5 -9 -11 -20 -14 -22 -6 -28 8 -7 16 19 8 27 8 27
-2z m1445 -16 c39 -13 66 -24 60 -24 -13 -1 -103 24 -135 37 -46 20 5 11 75
-13z m-1675 5 c12 -8 11 -10 -7 -10 -12 0 -25 5 -28 10 -8 13 15 13 35 0z
m978 -37 c1 -30 -1 -44 -7 -38 -15 16 -18 85 -3 85 4 0 8 -21 10 -47z m42 35
c0 -7 3 -24 7 -37 4 -17 2 -22 -7 -19 -15 5 -32 53 -22 62 10 10 22 6 22 -6z
m938 -4 c27 -13 44 -34 28 -34 -10 0 -96 40 -96 45 0 10 38 5 68 -11z m-3382
-21 c-10 -10 -19 5 -10 18 6 11 8 11 12 0 2 -7 1 -15 -2 -18z m1720 12 c-10
-8 -24 -11 -29 -8 -6 4 -2 10 9 14 31 12 40 9 20 -6z m-1616 -4 c0 -12 -20
-25 -27 -18 -7 7 6 27 18 27 5 0 9 -4 9 -9z m195 -1 c-3 -5 -10 -10 -16 -10
-5 0 -9 5 -9 10 0 6 7 10 16 10 8 0 12 -4 9 -10z m155 -7 c25 -22 25 -39 1
-53 -29 -15 -37 -13 -66 15 -31 31 -31 33 -2 45 33 13 45 12 67 -7z m610 -9
c0 -2 -9 0 -20 6 -11 6 -20 13 -20 16 0 2 9 0 20 -6 11 -6 20 -13 20 -16z
m230 16 c0 -5 -4 -10 -10 -10 -5 0 -10 5 -10 10 0 6 5 10 10 10 6 0 10 -4 10
-10z m1066 -20 c0 -16 -3 -30 -8 -30 -7 0 -6 36 1 58 4 10 7 -3 7 -28z m675
12 c-7 -2 -18 1 -23 6 -8 8 -4 9 13 5 13 -4 18 -8 10 -11z m487 2 c33 -23 27
-36 -8 -16 -16 9 -30 20 -30 25 0 11 14 8 38 -9z m-3368 -12 c0 -10 -6 -27
-14 -38 -13 -17 -15 -17 -21 -2 -7 18 10 58 25 58 6 0 10 -8 10 -18z m1350 9
c0 -11 -26 -22 -34 -14 -12 12 -5 23 14 23 11 0 20 -4 20 -9z m1859 -21 c31
-15 32 -17 12 -23 -11 -3 -21 -2 -21 2 0 4 -18 13 -40 20 -21 6 -42 16 -45 21
-9 14 53 1 94 -20z m-2671 4 c13 -23 3 -56 -17 -52 -22 4 -44 50 -28 60 19 12
35 9 45 -8z m2392 6 c0 -5 -4 -10 -9 -10 -6 0 -13 5 -16 10 -3 6 1 10 9 10 9
0 16 -4 16 -10z m-1504 -19 c-4 -6 -14 -7 -23 -4 -15 6 -14 7 3 13 22 9 29 6
20 -9z m1944 -26 c7 -8 11 -17 8 -20 -6 -6 -78 46 -78 57 0 11 53 -16 70 -37z
m-3331 14 c-16 -10 -23 -4 -14 10 3 6 11 8 17 5 6 -4 5 -9 -3 -15z m166 -5
c25 -25 25 -27 8 -40 -26 -20 -44 -17 -78 11 -29 24 -29 25 -11 40 28 22 52
19 81 -11z m1065 16 c0 -5 -7 -10 -15 -10 -8 0 -15 5 -15 10 0 6 7 10 15 10 8
0 15 -4 15 -10z m270 0 c0 -5 -5 -10 -11 -10 -5 0 -7 5 -4 10 3 6 8 10 11 10
2 0 4 -4 4 -10z m1153 -25 c31 -16 57 -32 57 -36 0 -13 -67 -27 -206 -44 -116
-14 -154 -14 -155 -2 0 7 -2 21 -4 31 -7 38 11 52 87 65 40 7 78 14 83 16 29
7 86 -5 138 -30z m427 20 c17 -9 32 -15 35 -15 13 -1 35 -13 35 -20 0 -11 -47
3 -95 28 -24 13 -33 21 -22 22 10 0 31 -7 47 -15z m-3206 -10 c6 -17 -2 -45
-14 -45 -9 0 -20 25 -20 46 0 19 26 18 34 -1z m548 -2 c18 -16 24 -42 11 -44
-5 0 -17 -2 -28 -4 -35 -7 -74 46 -42 58 23 10 40 7 59 -10z m518 2 c10 -12
10 -15 -2 -15 -8 0 -15 7 -15 15 0 8 1 15 2 15 2 0 8 -7 15 -15z m510 0 c0 -9
-6 -12 -16 -8 -13 5 -13 7 -2 14 17 11 18 11 18 -6z m-158 -17 c-6 -6 -15 -8
-19 -4 -4 4 -1 11 7 16 19 12 27 3 12 -12z m1806 -38 c3 -7 1 -10 -4 -8 -5 3
-30 15 -56 27 -68 30 -69 44 -1 16 31 -12 59 -28 61 -35z m302 45 c7 -9 8 -15
2 -15 -5 0 -12 7 -16 15 -3 8 -4 15 -2 15 2 0 9 -7 16 -15z m-3625 -31 c8 -20
15 -40 15 -44 0 -7 -146 -100 -157 -100 -14 0 -245 -165 -308 -220 -140 -123
-316 -321 -369 -415 -9 -16 -25 -43 -36 -60 -24 -39 -99 -206 -103 -231 -1
-10 -5 -23 -9 -29 -17 -29 -28 -114 -29 -235 -1 -138 15 -207 75 -320 l29 -55
-32 33 c-85 88 -147 206 -167 322 -7 40 -6 196 1 243 17 111 88 282 168 408
137 214 368 433 627 593 106 66 251 145 267 145 7 1 20 -15 28 -35z m2495 -7
c4 -19 4 -40 0 -46 -10 -17 -38 -3 -34 17 16 84 20 88 34 29z m-2235 -6 c-2
-9 -4 -19 -4 -23 -1 -5 -5 -8 -11 -8 -5 0 -8 10 -6 23 3 12 5 29 5 37 1 12 3
13 10 1 5 -7 7 -21 6 -30z m302 12 c24 -25 24 -27 6 -37 -30 -17 -41 -15 -69
11 -25 23 -26 25 -8 38 28 21 44 18 71 -12z m558 17 c3 -6 -1 -7 -9 -4 -18 7
-21 14 -7 14 6 0 13 -4 16 -10z m470 -12 c-19 -11 -30 -5 -21 11 4 6 14 7 22
4 15 -5 14 -7 -1 -15z m152 16 c-3 -3 -12 -4 -19 -1 -8 3 -5 6 6 6 11 1 17 -2
13 -5z m804 -27 c4 -16 2 -33 -7 -44 -7 -10 -14 -13 -14 -8 0 6 -3 27 -6 49
-5 29 -3 37 7 34 7 -2 16 -16 20 -31z m967 13 c27 -17 43 -40 27 -40 -12 0
-94 46 -95 53 0 13 35 7 68 -13z m-1121 -32 c-1 -17 -8 -33 -16 -36 -10 -3
-12 1 -8 19 4 13 7 32 7 42 0 10 4 16 9 13 5 -4 9 -20 8 -38z m46 22 c7 -26
-3 -61 -14 -54 -12 7 -12 74 0 74 5 0 11 -9 14 -20z m782 -1 c5 -5 17 -9 27
-9 10 0 18 -4 18 -10 0 -5 -2 -10 -5 -10 -10 0 -95 42 -95 47 0 6 43 -8 55
-18z m-2912 -40 c-19 -7 -34 16 -25 39 3 9 10 6 24 -10 18 -21 18 -23 1 -29z
m737 29 c0 -6 -6 -5 -15 2 -8 7 -15 14 -15 16 0 2 7 1 15 -2 8 -4 15 -11 15
-16z m405 12 c3 -5 2 -10 -4 -10 -5 0 -13 5 -16 10 -3 6 -2 10 4 10 5 0 13 -4
16 -10z m815 -37 c-11 -17 -11 -17 -6 0 3 10 7 26 7 35 1 15 2 15 6 0 2 -10
-1 -25 -7 -35z m41 13 c-11 -27 -24 -37 -16 -11 3 8 7 22 10 31 3 9 8 15 11
12 2 -3 0 -17 -5 -32z m43 7 c-8 -32 -24 -55 -19 -27 2 11 4 27 4 37 1 9 6 17
11 17 6 0 8 -11 4 -27z m796 12 c11 -13 10 -14 -4 -9 -9 3 -16 10 -16 15 0 13
6 11 20 -6z m-2385 -16 c9 -29 -2 -36 -20 -13 -18 24 -19 34 -1 34 8 0 18 -9
21 -21z m485 11 c0 -5 -2 -10 -4 -10 -3 0 -8 5 -11 10 -3 6 -1 10 4 10 6 0 11
-4 11 -10z m410 -5 c-7 -8 -16 -12 -21 -9 -13 8 -1 24 18 24 13 0 13 -3 3 -15z
m1811 -7 c34 -19 51 -38 34 -38 -15 0 -85 42 -85 50 0 14 8 13 51 -12z m153
12 c14 -5 26 -14 26 -20 0 -6 -12 -4 -30 5 -44 23 -42 33 4 15z m-3468 -16
c-3 -9 -6 -21 -6 -27 0 -8 -3 -8 -11 0 -13 13 -5 43 12 43 6 0 8 -7 5 -16z
m336 -29 c9 -12 -19 -35 -41 -35 -24 1 -64 38 -58 54 12 31 71 20 99 -19z
m313 35 c3 -6 -1 -7 -9 -4 -18 7 -21 14 -7 14 6 0 13 -4 16 -10z m165 -5 c7
-9 8 -15 2 -15 -5 0 -12 7 -16 15 -3 8 -4 15 -2 15 2 0 9 -7 16 -15z m227 -11
c-7 -7 -37 7 -37 17 0 6 9 5 21 -1 11 -7 19 -14 16 -16z m315 4 c-7 -7 -12 -8
-12 -2 0 14 12 26 19 19 2 -3 -1 -11 -7 -17z m228 17 c0 -2 -9 -9 -20 -15 -16
-9 -18 -8 -14 5 5 13 34 22 34 10z m-1034 -13 c6 -4 14 -17 18 -28 9 -31 -26
-38 -59 -12 -20 16 -23 23 -14 34 12 15 37 18 55 6z m1084 -2 c0 -5 -5 -10
-11 -10 -5 0 -7 5 -4 10 3 6 8 10 11 10 2 0 4 -4 4 -10z m1405 0 c3 -6 -1 -7
-9 -4 -18 7 -21 14 -7 14 6 0 13 -4 16 -10z m-2990 -42 c-3 -11 -7 -23 -10
-27 -9 -8 -23 19 -20 38 2 9 4 20 4 25 1 5 7 3 15 -3 8 -7 13 -22 11 -33z
m2857 12 c26 -16 53 -30 58 -30 6 0 10 -4 10 -9 0 -12 -142 -45 -240 -57 -25
-3 -56 -7 -70 -9 -14 -2 -73 -7 -132 -10 l-107 -6 3 45 c2 26 5 48 7 50 2 2
33 7 69 10 36 3 76 8 90 10 14 3 45 7 70 11 25 3 61 10 80 14 69 17 110 12
162 -19z m374 3 c24 -16 44 -31 44 -35 0 -12 -53 12 -85 37 -41 34 -13 32 41
-2z m-2532 1 c3 -8 2 -12 -4 -9 -6 3 -10 10 -10 16 0 14 7 11 14 -7z m676 6
c0 -5 -2 -10 -4 -10 -3 0 -8 5 -11 10 -3 6 -1 10 4 10 6 0 11 -4 11 -10z
m2039 -11 c34 -28 19 -36 -18 -9 -17 12 -31 23 -31 26 0 11 27 1 49 -17z
m-3525 -5 c4 -10 1 -14 -6 -12 -15 5 -23 28 -10 28 5 0 13 -7 16 -16z m297
-22 c15 -20 17 -27 7 -34 -21 -13 -52 -9 -75 11 -27 23 -28 30 -6 46 22 16 49
8 74 -23z m239 16 c25 -27 25 -35 1 -48 -16 -8 -25 -5 -48 15 -27 24 -28 25
-9 40 26 20 31 19 56 -7z m830 18 c0 -11 -19 -15 -25 -6 -3 5 1 10 9 10 9 0
16 -2 16 -4z m-386 -32 c7 -18 -1 -18 -20 0 -8 8 -14 17 -14 20 0 11 29 -6 34
-20z m183 4 c-3 -8 -6 -5 -6 6 -1 11 2 17 5 13 3 -3 4 -12 1 -19z m383 12 c0
-5 -2 -10 -4 -10 -3 0 -8 5 -11 10 -3 6 -1 10 4 10 6 0 11 -4 11 -10z m1768
-23 c19 -12 30 -23 24 -25 -11 -3 -102 45 -102 55 0 7 40 -8 78 -30z m-3349
-37 c10 -30 10 -36 -5 -45 -73 -43 -240 -159 -307 -213 -82 -66 -254 -233
-315 -307 -105 -128 -220 -332 -257 -457 -35 -121 -42 -176 -39 -284 4 -112 7
-141 17 -150 4 -4 7 -15 7 -25 0 -10 20 -58 45 -106 l46 -88 -49 50 c-49 50
-121 151 -126 176 -2 8 -8 26 -14 42 -22 52 -26 82 -26 197 -1 131 4 167 34
265 100 326 408 670 835 931 130 79 132 80 154 14z m791 16 c0 -5 -7 -3 -15 4
-8 7 -15 20 -15 28 0 13 3 12 15 -4 8 -10 15 -23 15 -28z m370 19 c0 -15 -21
-12 -30 5 -11 20 -10 21 9 10 12 -6 21 -13 21 -15z m2395 -25 c9 -15 -13 -12
-40 6 -14 9 -25 23 -25 31 0 11 7 10 30 -7 16 -11 32 -25 35 -30z m80 40 c3
-5 1 -10 -4 -10 -6 0 -11 5 -11 10 0 6 2 10 4 10 3 0 8 -4 11 -10z m-3555 -15
c13 -16 6 -35 -13 -35 -7 0 -14 11 -15 25 -2 28 9 32 28 10z m2154 -22 c-3
-21 -8 -41 -11 -46 -7 -11 -23 2 -18 16 28 78 38 89 29 30z m50 -1 c-7 -41
-13 -54 -23 -48 -8 5 -5 42 5 74 7 24 23 2 18 -26z m52 -12 c1 -25 -3 -41 -12
-44 -18 -7 -24 5 -18 40 11 68 26 70 30 4z m47 3 c2 -28 -2 -38 -13 -38 -11 0
-14 9 -12 35 7 64 22 66 25 3z m58 45 c15 -74 4 -113 -25 -89 -13 11 -13 62
-1 82 6 8 24 13 26 7z m60 -41 c4 -25 2 -41 -8 -48 -7 -6 -13 -10 -14 -8 -10
65 -10 101 2 97 8 -3 17 -21 20 -41z m802 6 c20 -13 37 -26 37 -28 0 -7 -70
29 -95 49 l-20 16 20 -7 c11 -3 37 -17 58 -30z m-2823 14 c8 -7 21 -19 28 -28
11 -15 9 -18 -17 -27 -25 -9 -34 -7 -56 9 -31 25 -32 37 -2 49 29 11 29 11 47
-3z m229 -13 c11 -15 18 -30 15 -35 -10 -17 -49 -8 -67 16 -16 23 -16 24 0 34
26 15 29 14 52 -15z m227 -11 c-4 -4 -11 -1 -16 7 -16 25 -11 35 7 17 9 -9 13
-20 9 -24z m1134 17 c-6 -11 -13 -20 -16 -20 -2 0 0 9 6 20 6 11 13 20 16 20
2 0 0 -9 -6 -20z m38 -5 c-6 -14 -13 -23 -15 -21 -5 5 15 46 22 46 3 0 -1 -11
-7 -25z m32 -25 c-17 -32 -22 -19 -7 19 7 20 13 27 15 18 2 -9 -2 -26 -8 -37z
m40 -4 c-8 -8 -10 -4 -6 19 6 41 8 44 13 16 3 -13 0 -28 -7 -35z m-1984 19
c-1 -13 -5 -27 -9 -31 -9 -10 -20 23 -13 41 9 24 23 17 22 -10z m904 4 c0 -6
-4 -7 -10 -4 -5 3 -10 11 -10 16 0 6 5 7 10 4 6 -3 10 -11 10 -16z m2139 -4
c46 -29 68 -56 24 -30 -40 23 -80 55 -70 55 4 0 25 -11 46 -25z m-2339 -17 c0
-6 -7 -5 -15 2 -8 7 -15 17 -15 22 0 6 7 5 15 -2 8 -7 15 -17 15 -22z m2595
13 c17 -10 32 -26 34 -36 3 -18 2 -18 -25 0 -68 44 -76 75 -9 36z m150 -19
c-6 -7 -35 18 -35 31 0 5 9 2 20 -8 11 -10 18 -20 15 -23z m-3391 11 c5 -11 1
-22 -10 -30 -21 -15 -33 -9 -29 15 2 9 4 20 4 25 2 14 29 7 35 -10z m1522 2
c-11 -8 -22 -12 -25 -9 -6 6 19 24 34 24 6 -1 1 -7 -9 -15z m1379 -21 c30 -20
55 -41 55 -46 0 -30 -259 -83 -455 -93 -38 -2 -70 -4 -70 -5 0 -1 -39 -2 -87
-3 -82 -2 -87 -1 -83 18 2 11 4 27 4 36 2 42 23 50 132 55 117 4 389 49 447
73 1 1 27 -15 57 -35z m-2745 0 c29 -25 29 -27 13 -40 -27 -20 -47 -17 -77 13
l-27 27 23 13 c31 17 32 17 68 -13z m225 6 c35 -38 -8 -69 -47 -33 -21 19 -23
39 -5 46 23 10 34 7 52 -13z m572 -2 c-3 -8 -6 -5 -6 6 -1 11 2 17 5 13 3 -3
4 -12 1 -19z m2028 -13 l20 -16 -20 10 c-11 5 -29 17 -40 26 l-20 16 20 -10
c11 -5 29 -17 40 -26z m-3093 1 c6 -14 7 -33 4 -43 -7 -16 -9 -16 -21 7 -17
30 -19 60 -5 60 6 0 15 -11 22 -24z m676 -1 c14 -29 -2 -34 -18 -6 -12 24 -13
31 -2 31 5 0 14 -11 20 -25z m202 10 c7 -9 8 -15 2 -15 -5 0 -12 7 -16 15 -3
8 -4 15 -2 15 2 0 9 -7 16 -15z m146 -23 c-9 -8 -26 10 -26 26 1 15 2 15 15
-2 8 -11 13 -21 11 -24z m284 28 c0 -5 -5 -10 -11 -10 -5 0 -7 5 -4 10 3 6 8
10 11 10 2 0 4 -4 4 -10z m458 -10 c-7 -11 -17 -20 -22 -20 -5 0 -1 9 9 20 10
11 20 20 22 20 2 0 -2 -9 -9 -20z m1558 -11 c49 -33 53 -50 7 -26 -28 15 -72
57 -59 57 4 0 28 -14 52 -31z m-1606 17 c0 -2 -8 -10 -17 -17 -16 -13 -17 -12
-4 4 13 16 21 21 21 13z m-880 -21 c10 -12 10 -15 -3 -15 -8 0 -17 7 -21 15
-3 8 -2 15 3 15 5 0 14 -7 21 -15z m1000 -21 c-18 -21 -24 -10 -8 15 7 12 14
17 16 11 2 -6 -2 -17 -8 -26z m1644 23 c11 -8 17 -19 15 -26 -3 -8 -13 -3 -28
13 -26 28 -17 35 13 13z m-3061 -22 c20 -28 17 -40 -12 -48 -13 -3 -28 4 -43
20 -23 24 -23 25 -4 39 27 19 38 17 59 -11z m201 0 c15 -23 15 -25 -3 -35 -16
-8 -23 -5 -41 17 -16 20 -18 28 -8 35 22 13 35 9 52 -17z m355 11 c17 -21 -4
-30 -23 -10 -9 8 -16 17 -16 20 0 10 29 3 39 -10z m906 -15 c-3 -12 -11 -19
-16 -16 -5 4 -3 14 3 25 15 24 22 19 13 -9z m1383 15 c31 -16 70 -56 55 -56
-10 0 -54 31 -81 57 -17 17 -8 16 26 -1z m-3320 -36 c-2 -7 -10 1 -17 16 -12
27 -11 28 4 12 10 -9 16 -21 13 -28z m89 18 c-3 -8 -6 -5 -6 6 -1 11 2 17 5
13 3 -3 4 -12 1 -19z m150 -3 c27 -24 27 -26 10 -39 -21 -16 -40 -12 -75 18
-21 19 -22 21 -6 33 25 19 39 16 71 -12z m1373 10 c-7 -8 -17 -15 -22 -15 -6
0 -5 7 2 15 7 8 17 15 22 15 6 0 5 -7 -2 -15z m371 -12 c-4 -15 -13 -29 -20
-31 -9 -3 -11 1 -7 9 3 8 9 22 12 32 10 28 23 20 15 -10z m43 -11 c-7 -33 -24
-44 -24 -16 0 18 20 58 26 51 2 -2 1 -18 -2 -35z m51 1 c-9 -20 -18 -39 -20
-42 -10 -9 -5 41 5 60 19 34 31 20 15 -18z m-2118 -10 l15 -38 -48 -42 c-27
-23 -52 -43 -56 -43 -30 -1 -368 -315 -444 -412 -22 -28 -44 -55 -50 -62 -26
-28 -123 -187 -156 -256 -72 -151 -91 -229 -93 -386 -3 -171 6 -229 51 -313
18 -36 31 -67 28 -70 -3 -3 -28 18 -55 48 -137 148 -176 348 -114 592 9 35 19
71 22 79 3 8 7 20 8 25 13 56 138 270 213 365 62 77 273 283 362 352 103 80
277 198 291 198 5 0 17 -17 26 -37z m853 17 c6 -11 8 -20 6 -20 -3 0 -10 9
-16 20 -6 11 -8 20 -6 20 3 0 10 -9 16 -20z m170 -7 c0 -13 -3 -13 -15 -3 -8
7 -15 16 -15 21 0 5 7 6 15 3 8 -4 15 -13 15 -21z m685 7 c-10 -11 -23 -20
-28 -20 -6 0 -2 9 8 20 10 11 23 20 28 20 6 0 2 -9 -8 -20z m465 -7 c0 -34
-14 -58 -28 -49 -11 6 -10 17 2 54 10 31 26 28 26 -5z m48 -7 c2 -15 1 -35 -3
-44 -6 -16 -7 -16 -19 0 -15 20 -9 81 8 75 6 -2 12 -16 14 -31z m181 -22 c-2
-35 -6 -44 -21 -44 -10 0 -18 6 -19 13 -4 44 -3 54 4 69 15 34 38 9 36 -38z
m934 26 c26 -16 47 -34 47 -40 0 -11 -30 7 -89 52 -38 29 -9 21 42 -12z m222
0 c16 -16 24 -30 18 -30 -14 0 -63 39 -63 51 0 17 16 9 45 -21z m-2897 -42
c-22 -13 -40 -9 -60 14 -18 22 -18 22 3 34 19 10 26 8 46 -14 18 -19 20 -27
11 -34z m1620 28 c3 -36 -13 -55 -30 -38 -13 13 0 72 16 72 6 0 13 -15 14 -34z
m57 -12 c0 -29 -5 -40 -18 -42 -14 -3 -17 4 -17 36 0 21 3 42 7 46 15 15 28
-3 28 -40z m115 7 c0 -15 -7 -36 -15 -47 -15 -19 -15 -13 -6 79 2 21 21 -7 21
-32z m-2010 4 c25 -27 25 -27 -6 -43 -17 -9 -25 -6 -49 15 -26 25 -27 27 -9
40 25 19 37 16 64 -12z m1320 16 c0 -5 -7 -11 -15 -15 -15 -5 -20 5 -8 17 9
10 23 9 23 -2z m-950 -22 c7 -11 9 -24 5 -27 -7 -7 -35 25 -35 40 0 16 19 8
30 -13z m2481 0 c13 -11 31 -25 39 -29 8 -5 12 -11 9 -14 -7 -7 -79 42 -79 54
0 14 4 13 31 -11z m-3155 -16 c-10 -10 -19 5 -10 18 6 11 8 11 12 0 2 -7 1
-15 -2 -18z m94 -18 c0 -3 -10 -9 -21 -16 -25 -13 -39 1 -39 39 l0 23 30 -21
c17 -12 30 -23 30 -25z m895 35 c3 -5 1 -10 -4 -10 -6 0 -11 5 -11 10 0 6 2
10 4 10 3 0 8 -4 11 -10z m705 -20 c-6 -12 -14 -20 -17 -17 -2 3 1 14 8 26 17
26 24 19 9 -9z m1401 17 c74 -58 73 -57 57 -73 -8 -8 -21 -17 -29 -18 -8 -2
-21 -5 -29 -8 -50 -18 -109 -37 -135 -43 -31 -7 -50 -11 -87 -20 -38 -9 -108
-16 -208 -21 -52 -3 -99 -5 -105 -5 -5 -1 -61 0 -123 1 -109 2 -112 3 -118 26
-3 13 -2 36 3 51 l10 28 104 2 c112 2 242 10 286 17 16 3 48 8 72 11 49 7 233
53 240 61 9 8 46 3 62 -9z m294 -13 c15 -14 24 -28 21 -32 -4 -3 -21 8 -39 26
-37 38 -22 44 18 6z m-2075 12 c0 -3 -4 -8 -10 -11 -5 -3 -10 -1 -10 4 0 6 5
11 10 11 6 0 10 -2 10 -4z m435 -26 c-9 -17 -20 -28 -25 -25 -11 7 17 55 31
55 5 0 2 -14 -6 -30z m1765 5 c14 -19 14 -19 -2 -6 -10 7 -18 18 -18 24 0 6 1
8 3 6 1 -2 9 -13 17 -24z m-3283 -22 c33 -30 -12 -55 -52 -29 -29 19 -32 41
-8 55 18 9 28 5 60 -26z m207 21 c22 -21 20 -41 -3 -47 -23 -6 -67 35 -56 52
9 16 41 13 59 -5z m187 -5 c9 -17 8 -23 -2 -30 -15 -9 -49 16 -49 38 0 21 38
15 51 -8z m319 -12 c0 -5 -4 -5 -10 -2 -5 3 -10 14 -10 23 0 15 2 15 10 2 5
-8 10 -19 10 -23z m260 29 c0 -3 -4 -8 -10 -11 -5 -3 -10 -1 -10 4 0 6 5 11
10 11 6 0 10 -2 10 -4z m586 -44 c-24 -24 -30 -7 -9 24 15 24 18 25 21 10 2
-10 -3 -25 -12 -34z m-1826 17 c0 -18 -2 -19 -15 -9 -15 12 -12 30 6 30 5 0 9
-10 9 -21z m1395 2 c-3 -6 -11 -11 -17 -11 -6 0 -6 6 2 15 14 17 26 13 15 -4z
m487 -26 c-17 -36 -34 -23 -20 16 7 21 14 27 21 20 7 -7 7 -18 -1 -36z m1518
10 c22 -23 29 -35 19 -35 -8 0 -30 16 -49 35 -22 23 -29 35 -19 35 8 0 30 -16
49 -35z m-2596 -6 c-8 -13 -24 -1 -24 18 0 13 3 13 15 3 8 -7 12 -16 9 -21z
m1139 25 c8 -8 -13 -64 -24 -64 -10 0 -12 31 -3 54 6 17 16 20 27 10z m-1344
-23 c20 -18 20 -20 5 -35 -15 -16 -18 -16 -35 0 -22 20 -25 40 -6 47 6 3 12 6
13 6 1 1 11 -8 23 -18z m336 1 c0 -18 -20 -15 -23 4 -3 10 1 15 10 12 7 -3 13
-10 13 -16z m355 2 c0 -8 -5 -12 -10 -9 -6 4 -8 11 -5 16 9 14 15 11 15 -7z
m698 -35 c-6 -18 -15 -26 -24 -22 -15 6 -11 36 9 61 16 20 27 -6 15 -39z
m1367 11 c45 -46 31 -55 -15 -10 -25 24 -39 50 -27 50 2 0 21 -18 42 -40z
m184 11 c15 -23 15 -24 -7 -10 -12 7 -24 20 -27 27 -8 21 17 9 34 -17z m-3129
-3 c13 -17 15 -27 8 -35 -15 -18 -31 -16 -58 7 -19 16 -21 22 -10 35 18 21 39
19 60 -7z m344 -1 c6 -9 7 -19 3 -23 -9 -9 -37 15 -37 33 0 18 20 12 34 -10z
m443 17 c-3 -3 -12 -4 -19 -1 -8 3 -5 6 6 6 11 1 17 -2 13 -5z m251 -6 c-2 -6
-10 -14 -16 -16 -7 -2 -10 2 -6 12 7 18 28 22 22 4z m132 2 c0 -5 -5 -10 -11
-10 -5 0 -7 5 -4 10 3 6 8 10 11 10 2 0 4 -4 4 -10z m54 -14 c-6 -16 -24 -23
-24 -8 0 10 22 33 27 28 2 -2 1 -11 -3 -20z m419 12 c2 -7 -2 -26 -10 -42 -19
-36 -38 -21 -28 23 7 31 29 42 38 19z m57 -28 c0 -30 -11 -50 -27 -50 -11 0
-14 10 -12 38 1 20 4 41 7 45 6 13 32 -14 32 -33z m-2146 -36 c5 -17 -9 -32
-81 -90 -334 -264 -566 -571 -653 -862 -29 -100 -35 -148 -34 -282 1 -105 3
-122 32 -195 18 -44 32 -84 32 -88 0 -18 -64 31 -91 70 -51 74 -73 132 -87
235 -51 354 227 820 698 1172 52 39 97 74 100 77 3 3 14 10 24 16 16 9 23 7
37 -11 9 -11 19 -30 23 -42z m86 40 c0 -8 -4 -12 -10 -9 -5 3 -10 13 -10 21 0
8 5 12 10 9 6 -3 10 -13 10 -21z m144 -7 c27 -19 28 -21 10 -34 -25 -19 -35
-17 -68 14 -27 25 -28 27 -11 39 19 14 22 13 69 -19z m690 17 c20 -19 21 -34
2 -34 -13 0 -26 20 -26 41 0 13 6 11 24 -7z m812 -12 c-8 -24 -36 -38 -36 -17
0 15 30 49 37 41 3 -2 2 -13 -1 -24z m471 -3 c2 -13 1 -35 -2 -47 -5 -20 -8
-22 -20 -12 -16 13 -19 47 -9 75 9 22 26 14 31 -16z m-827 6 c0 -8 -4 -15 -9
-15 -13 0 -22 16 -14 24 11 11 23 6 23 -9z m160 1 c0 -15 -18 -31 -26 -23 -7
7 7 37 17 37 5 0 9 -6 9 -14z m731 -32 c-4 -49 -9 -58 -27 -43 -17 14 -18 61
-2 77 21 21 33 7 29 -34z m63 6 c-12 -65 -15 -73 -26 -62 -14 14 -17 84 -4 94
13 9 34 -13 30 -32z m1056 -32 c0 -13 -7 -9 -44 26 -48 45 -46 55 4 15 22 -18
40 -36 40 -41z m180 9 c0 -6 -13 2 -30 18 -16 15 -27 32 -23 38 6 10 53 -39
53 -56z m-2990 26 c19 -24 19 -28 5 -36 -23 -13 -70 30 -54 50 16 19 25 16 49
-14z m165 7 c14 -15 16 -23 7 -32 -15 -15 -42 7 -42 33 0 25 12 24 35 -1z
m535 -1 c0 -5 -4 -9 -10 -9 -5 0 -10 7 -10 16 0 8 5 12 10 9 6 -3 10 -10 10
-16z m503 -14 c-17 -22 -33 -24 -33 -5 0 14 31 41 41 34 5 -3 1 -16 -8 -29z
m-1402 -1 c23 -25 23 -26 5 -39 -20 -15 -42 -8 -66 21 -12 14 -12 18 5 30 25
19 28 18 56 -12z m509 -10 c0 -8 -6 -14 -14 -14 -16 0 -29 27 -20 41 8 13 34
-9 34 -27z m528 -13 c-15 -6 -20 7 -12 31 l8 23 6 -25 c3 -14 2 -27 -2 -29z
m159 12 c-16 -16 -17 -16 -17 3 0 26 11 37 24 24 7 -7 5 -16 -7 -27z m252 -19
c-22 -27 -34 2 -13 33 19 28 19 28 22 5 2 -13 -2 -30 -9 -38z m546 34 c-4 -13
-9 -32 -12 -43 l-6 -20 -7 20 c-8 21 7 65 22 65 5 0 6 -10 3 -22z m945 -19
c22 -22 37 -45 34 -50 -9 -15 -98 -53 -189 -82 -74 -23 -93 -28 -165 -42 -118
-24 -520 -23 -615 1 -28 7 -29 13 -15 65 10 35 12 37 48 33 109 -12 384 -5
485 11 64 11 117 21 127 25 3 1 10 3 15 4 37 6 82 20 93 28 6 6 12 7 12 3 0
-4 7 -2 15 5 8 7 15 10 15 7 0 -3 19 3 43 13 23 11 45 20 49 20 4 0 25 -18 48
-41z m-2001 -10 c-13 -26 -23 -18 -14 10 3 12 11 19 16 16 5 -4 5 -14 -2 -26z
m581 17 c0 -8 -9 -24 -20 -37 l-19 -24 -1 26 c0 24 16 49 32 49 4 0 8 -6 8
-14z m1625 -17 c25 -30 28 -48 6 -35 -17 11 -53 66 -43 66 6 0 22 -14 37 -31z
m-3363 4 c23 -21 23 -43 -1 -43 -19 0 -31 18 -31 46 0 18 9 18 32 -3z m366
-16 c10 -11 9 -17 -3 -27 -20 -17 -65 5 -65 31 0 32 40 30 68 -4z m156 27 c19
-7 22 -54 3 -54 -16 0 -40 38 -32 50 7 12 9 12 29 4z m156 -35 c0 -11 -4 -19
-8 -19 -11 0 -32 46 -25 54 10 10 33 -15 33 -35z m258 16 c-3 -3 -9 2 -12 12
-6 14 -5 15 5 6 7 -7 10 -15 7 -18z m128 -2 c-10 -10 -19 5 -10 18 6 11 8 11
12 0 2 -7 1 -15 -2 -18z m414 12 c0 -8 -9 -19 -20 -25 -15 -8 -20 -8 -20 3 0
14 19 37 32 37 4 0 8 -7 8 -15z m307 -18 c-4 -30 -16 -49 -28 -42 -8 6 -3 48
8 68 8 14 23 -5 20 -26z m1694 1 c8 -15 8 -18 0 -14 -6 4 -16 16 -22 28 -8 15
-8 18 0 14 6 -4 16 -16 22 -28z m-2688 8 c4 -10 1 -13 -8 -9 -8 3 -12 9 -9 14
7 12 11 11 17 -5z m1057 -21 c0 -30 -29 -62 -41 -44 -6 11 2 46 17 71 9 14 24
-2 24 -27z m-1703 4 c32 -20 33 -22 17 -40 -18 -20 -26 -18 -61 14 -17 15 -20
23 -12 34 15 17 15 17 56 -8z m1157 6 c-4 -8 -8 -15 -10 -15 -2 0 -4 7 -4 15
0 8 4 15 10 15 5 0 7 -7 4 -15z m236 9 c0 -16 -23 -44 -35 -44 -19 0 -19 15 1
34 15 16 34 21 34 10z m1805 -40 c14 -19 21 -34 15 -34 -13 0 -70 57 -70 70 0
17 29 -1 55 -36z m-2715 10 c6 -14 7 -30 4 -36 -9 -14 -37 30 -30 47 8 22 15
18 26 -11z m270 5 c0 -11 -4 -17 -10 -14 -5 3 -10 13 -10 21 0 8 5 14 10 14 6
0 10 -9 10 -21z m298 -16 c-15 -18 -21 -9 -13 18 6 16 9 18 16 8 4 -8 3 -19
-3 -26z m714 25 c8 -23 -7 -63 -25 -66 -18 -4 -22 15 -11 56 7 24 29 30 36 10z
m-1430 -17 c15 -17 15 -21 2 -32 -12 -10 -19 -8 -36 8 -20 21 -18 43 5 43 7 0
20 -9 29 -19z m1108 6 c0 -21 -26 -51 -38 -43 -8 5 -8 13 0 31 12 26 38 34 38
12z m385 -36 c-8 -43 -8 -43 -29 -35 -18 7 -22 54 -5 71 23 23 41 3 34 -36z
m-2080 -1 l18 -40 -39 -32 c-53 -43 -259 -251 -314 -317 -25 -29 -50 -59 -55
-65 -28 -29 -141 -208 -175 -275 -38 -76 -94 -233 -106 -294 -23 -124 -19
-266 11 -347 30 -81 29 -80 3 -80 -36 0 -66 26 -93 83 -41 89 -54 153 -50 267
2 58 8 123 14 145 6 22 10 42 10 45 -1 9 39 110 78 198 31 68 143 245 201 316
62 76 257 275 310 316 18 14 38 30 45 35 34 30 111 85 117 85 4 0 15 -18 25
-40z m405 18 c20 -21 20 -23 4 -35 -10 -7 -21 -13 -24 -13 -14 0 -52 49 -45
59 11 18 43 12 65 -11z m460 -4 c0 -8 -4 -12 -10 -9 -5 3 -10 13 -10 21 0 8 5
12 10 9 6 -3 10 -13 10 -21z m230 16 c0 -5 -4 -10 -10 -10 -5 0 -10 5 -10 10
0 6 5 10 10 10 6 0 10 -4 10 -10z m123 -5 c4 -8 2 -17 -3 -20 -6 -4 -10 -4
-10 -1 0 2 -3 11 -6 20 -3 9 -2 16 4 16 5 0 12 -7 15 -15z m537 -7 c0 -19 -21
-48 -35 -48 -18 0 -19 23 -3 49 11 19 38 18 38 -1z m388 -36 c-2 -19 -9 -27
-23 -27 -16 0 -20 6 -18 34 2 38 23 59 36 35 5 -8 7 -27 5 -42z m1442 15 c0
-6 -9 -2 -20 8 -11 10 -20 23 -20 28 0 6 9 2 20 -8 11 -10 20 -23 20 -28z
m-170 -3 c17 -20 29 -39 26 -42 -7 -6 -54 36 -67 61 -17 30 7 19 41 -19z
m-3355 16 c3 -5 1 -10 -4 -10 -6 0 -11 5 -11 10 0 6 2 10 4 10 3 0 8 -4 11
-10z m129 -11 c30 -23 33 -37 10 -46 -17 -6 -64 33 -64 54 0 19 24 16 54 -8z
m351 -39 c-10 -15 -22 -12 -45 12 -19 21 -20 24 -4 35 14 10 20 8 36 -12 11
-14 16 -29 13 -35z m147 43 c17 -15 25 -43 12 -43 -18 0 -44 24 -44 40 0 24 8
25 32 3z m281 -13 c3 -11 2 -20 -3 -20 -8 0 -20 24 -20 41 0 17 17 1 23 -21z
m402 -8 c-15 -16 -16 -15 -4 12 7 15 15 23 17 16 3 -7 -3 -19 -13 -28z m175
31 c0 -14 -19 -38 -25 -32 -8 8 5 39 16 39 5 0 9 -3 9 -7z m660 -25 c0 -18 -5
-40 -10 -48 -9 -13 -11 -13 -20 0 -11 17 -13 63 -3 73 17 18 33 5 33 -25z m55
-3 c-5 -37 -16 -65 -26 -65 -6 0 -8 18 -5 43 2 23 5 45 5 49 1 4 7 5 15 2 7
-3 12 -16 11 -29z m-1437 0 c6 -14 8 -25 3 -25 -13 0 -42 36 -34 43 12 12 20
8 31 -18z m432 10 c0 -8 -4 -15 -10 -15 -5 0 -7 7 -4 15 4 8 8 15 10 15 2 0 4
-7 4 -15z m553 -7 c-8 -30 -23 -49 -34 -42 -13 8 -11 38 3 52 20 20 37 14 31
-10z m1566 -18 l40 -41 -56 -36 c-98 -62 -252 -113 -388 -128 -33 -4 -73 -9
-90 -11 -37 -5 -284 -4 -342 1 -57 5 -135 15 -153 20 -8 2 -37 7 -65 10 -27 3
-53 9 -56 13 -4 4 0 24 8 46 l16 39 116 -8 c403 -25 635 2 843 99 40 19 76 35
80 35 4 1 25 -17 47 -39z m-3025 -37 c-13 -10 -22 -8 -50 10 -40 26 -41 31
-11 44 18 9 27 6 50 -15 25 -24 26 -28 11 -39z m713 52 c0 -8 -4 -15 -8 -15
-11 0 -20 16 -12 24 11 11 20 7 20 -9z m527 -21 c-16 -23 -34 -32 -34 -16 0 4
7 18 16 30 21 30 38 17 18 -14z m703 4 c-3 -7 -5 -2 -5 12 0 14 2 19 5 13 2
-7 2 -19 0 -25z m1266 2 c20 -33 9 -41 -15 -12 -25 29 -30 42 -16 42 8 0 22
-13 31 -30z m-2623 -23 c0 -16 -18 3 -23 25 -6 22 -5 22 8 4 8 -11 15 -24 15
-29z m240 28 c0 -8 -4 -15 -10 -15 -5 0 -10 7 -10 15 0 8 5 15 10 15 6 0 10
-7 10 -15z m260 8 c0 -5 -7 -17 -15 -27 -15 -20 -20 -10 -9 18 6 16 24 22 24
9z m434 -13 c-1 -26 -16 -50 -30 -50 -15 0 -18 27 -8 55 8 20 39 16 38 -5z
m-1739 -16 c26 -26 26 -48 0 -38 -12 5 -40 64 -30 64 2 0 16 -12 30 -26z m507
9 c22 -19 24 -43 4 -43 -17 0 -48 39 -40 52 8 12 15 10 36 -9z m148 -24 c0
-11 -4 -19 -9 -19 -10 0 -21 24 -21 47 0 13 3 13 15 3 8 -7 15 -21 15 -31z
m-312 12 c26 -22 27 -28 8 -47 -12 -12 -18 -10 -41 18 -20 24 -23 33 -13 39
18 12 20 11 46 -10z m547 -10 c2 -11 0 -21 -6 -21 -5 0 -9 12 -9 27 0 30 9 27
15 -6z m635 15 c0 -16 -26 -46 -41 -46 -10 0 -11 7 -3 38 7 24 44 31 44 8z
m278 -13 c-4 -35 -18 -51 -39 -46 -25 7 -3 73 23 73 15 0 19 -6 16 -27z m1592
-8 c0 -7 6 -15 13 -18 6 -2 8 -8 4 -13 -5 -5 -19 4 -33 21 -29 37 -31 49 -4
35 11 -6 20 -17 20 -25z m-2209 -8 c-8 -8 -11 -7 -11 4 0 20 13 34 18 19 3 -7
-1 -17 -7 -23z m681 -17 c-5 -36 -18 -46 -38 -29 -15 12 -11 42 9 67 16 20 34
-4 29 -38z m-1724 21 c27 -23 29 -51 4 -51 -23 0 -66 45 -57 59 9 16 27 13 53
-8z m929 -3 c-3 -8 -6 -5 -6 6 -1 11 2 17 5 13 3 -3 4 -12 1 -19z m511 1 c1
-8 -4 -23 -12 -34 -12 -16 -17 -17 -27 -8 -10 10 -10 18 1 38 14 27 33 29 38
4z m-1114 -14 c16 -24 16 -26 0 -32 -17 -6 -57 34 -48 49 10 16 32 8 48 -17z
m147 -1 c5 -15 7 -30 3 -33 -8 -8 -45 39 -38 50 10 17 24 9 35 -17z m384 16
c3 -5 1 -10 -4 -10 -6 0 -11 5 -11 10 0 6 2 10 4 10 3 0 8 -4 11 -10z m356
-13 c-10 -9 -11 -8 -5 6 3 10 9 15 12 12 3 -3 0 -11 -7 -18z m579 1 c0 -30
-11 -68 -19 -68 -23 1 -33 20 -27 54 5 27 12 36 26 36 14 0 20 -7 20 -22z
m1564 6 c3 -8 2 -12 -4 -9 -6 3 -10 10 -10 16 0 14 7 11 14 -7z m-3566 -28
l23 -34 -103 -104 c-119 -119 -147 -151 -208 -233 -25 -33 -47 -62 -50 -65 -3
-3 -31 -45 -62 -95 -89 -142 -147 -276 -189 -435 -6 -25 -13 -92 -15 -150 -3
-96 0 -122 21 -217 l7 -32 -38 5 c-48 6 -56 14 -84 89 -26 69 -35 224 -19 315
15 78 65 222 109 311 39 79 115 204 137 227 7 7 13 17 13 20 0 4 10 18 23 32
12 14 40 48 62 75 73 91 318 325 340 325 5 0 20 -15 33 -34z m793 12 c11 -21
11 -22 -4 -9 -10 7 -17 17 -17 22 0 15 9 10 21 -13z m916 11 c8 -8 8 -20 1
-40 -11 -31 -15 -34 -37 -20 -12 8 -12 14 -1 40 13 34 20 37 37 20z m355 -4
c7 -9 1 -60 -8 -77 -10 -17 -34 6 -34 32 0 52 21 74 42 45z m1374 -27 c9 -16
14 -32 11 -34 -4 -5 -57 60 -57 70 0 15 33 -10 46 -36z m-3080 7 c29 -44 -6
-54 -50 -14 -10 10 -15 22 -11 28 11 19 44 12 61 -14z m1134 18 c-1 -11 -26
-43 -34 -43 -10 0 -7 25 6 38 13 13 28 16 28 5z m-293 -35 c-3 -7 -5 -2 -5 12
0 14 2 19 5 13 2 -7 2 -19 0 -25z m128 13 c-3 -6 -11 -11 -17 -11 -6 0 -6 6 2
15 14 17 26 13 15 -4z m796 9 c1 -5 2 -16 3 -22 1 -7 -2 -26 -7 -41 -12 -35
-35 -20 -31 20 1 16 2 34 3 41 1 14 30 17 32 2z m-1962 -26 c27 -34 27 -47 -1
-38 -24 7 -58 40 -58 56 0 18 40 6 59 -18z m335 -11 c6 -16 0 -33 -12 -33 -18
1 -54 41 -48 55 4 12 10 13 30 4 14 -7 27 -18 30 -26z m141 15 c9 -14 11 -24
5 -26 -14 -5 -40 17 -40 34 0 21 17 17 35 -8z m125 -4 c15 -37 12 -42 -10 -15
-22 26 -26 41 -10 41 6 0 15 -12 20 -26z m127 11 c0 -8 -4 -12 -9 -9 -4 3 -8
9 -8 15 0 5 4 9 8 9 5 0 9 -7 9 -15z m213 -1 c0 -8 -5 -12 -10 -9 -6 4 -8 11
-5 16 9 14 15 11 15 -7z m448 -29 c-12 -27 -16 -29 -37 -16 -12 8 -13 14 -3
36 10 22 15 24 32 15 17 -9 18 -14 8 -35z m227 35 c11 -18 -7 -60 -25 -60 -26
0 -32 14 -19 44 12 26 33 34 44 16z m391 -35 c-4 -19 -11 -35 -16 -35 -12 0
-13 33 -2 44 4 4 8 12 8 17 3 20 4 22 10 16 4 -3 3 -22 0 -42z m1228 14 c14
-17 26 -37 26 -44 0 -37 -212 -153 -330 -180 -22 -5 -89 -18 -105 -21 -11 -2
-38 -6 -60 -10 -82 -14 -387 -8 -482 10 -12 3 -43 8 -70 12 -47 6 -60 9 -105
19 -13 3 -32 7 -43 10 -82 18 -85 22 -63 78 13 33 9 33 198 2 127 -21 478 -21
580 0 14 3 36 7 50 10 63 12 77 16 139 36 70 23 163 67 196 93 29 22 40 20 69
-15z m152 14 c16 -21 18 -37 4 -28 -13 8 -33 45 -24 45 4 0 13 -8 20 -17z
m-2549 -25 c-3 -7 -5 -2 -5 12 0 14 2 19 5 13 2 -7 2 -19 0 -25z m359 6 c-4
-9 -9 -15 -11 -12 -3 3 -3 13 1 22 4 9 9 15 11 12 3 -3 3 -13 -1 -22z m-1037
-50 c-16 -19 -24 -18 -56 10 -23 20 -25 26 -14 40 12 14 16 13 47 -11 27 -20
32 -29 23 -39z m1519 53 c6 -7 9 -22 7 -32 -2 -11 -4 -24 -4 -28 -1 -5 -11 -7
-23 -5 -25 3 -31 31 -14 61 13 20 20 21 34 4z m-1245 -26 c12 -20 14 -32 6
-36 -13 -8 -38 23 -39 48 0 26 14 21 33 -12z m132 -2 c9 -17 14 -33 12 -35 -8
-8 -47 48 -41 57 8 14 12 11 29 -22z m138 1 c3 -11 2 -18 -3 -15 -4 3 -10 14
-13 25 -3 11 -2 18 3 15 4 -3 10 -14 13 -25z m407 22 c0 -5 -7 -17 -15 -28
-14 -18 -14 -17 -4 9 12 27 19 34 19 19z m339 -6 c16 -20 -4 -58 -27 -54 -19
4 -23 24 -10 51 11 21 22 22 37 3z m1931 -46 c0 -10 -7 -7 -20 10 -11 14 -20
32 -20 40 0 10 7 7 20 -10 11 -14 20 -32 20 -40z m-1625 8 c-1 -13 -3 -29 -4
-35 -2 -20 -39 -15 -46 6 -3 10 -1 30 5 45 8 22 13 25 29 17 11 -6 17 -19 16
-33z m-1785 -16 c-6 -2 -18 4 -25 14 -24 31 -17 39 11 13 14 -13 20 -25 14
-27z m301 26 c11 -11 19 -24 19 -29 0 -17 -27 -15 -53 3 -22 16 -25 23 -16 34
16 19 29 18 50 -8z m1009 14 c0 -5 -7 -17 -15 -28 -15 -19 -20 -8 -9 20 6 17
24 22 24 8z m-465 -12 c3 -6 -1 -7 -9 -4 -18 7 -21 14 -7 14 6 0 13 -4 16 -10z
m705 -24 c0 -31 -16 -50 -34 -43 -18 7 -21 48 -5 64 16 16 39 4 39 -21z m293
20 c28 -29 -2 -100 -35 -80 -14 9 0 94 17 94 2 0 10 -6 18 -14z m-1914 -30
c26 -41 26 -38 -1 -68 -132 -145 -204 -236 -285 -357 -116 -174 -212 -399
-228 -536 -11 -96 -13 -189 -5 -233 4 -22 4 -45 1 -50 -11 -18 -70 -21 -86 -6
-52 52 -53 305 -3 454 7 19 13 37 13 40 10 53 99 230 175 344 39 60 77 115 83
121 7 7 25 30 42 51 34 44 258 274 267 274 4 0 16 -15 27 -34z m184 9 c27 -24
29 -45 3 -45 -22 0 -59 38 -52 55 7 20 16 19 49 -10z m309 1 c10 -14 13 -28 8
-37 -7 -11 -14 -9 -34 10 -20 19 -23 27 -15 38 15 18 21 16 41 -11z m146 -12
c7 -13 9 -24 5 -24 -12 0 -43 33 -43 46 0 21 26 6 38 -22z m479 14 c-3 -8 -6
-5 -6 6 -1 11 2 17 5 13 3 -3 4 -12 1 -19z m2328 -19 c9 -16 11 -29 6 -29 -10
0 -41 51 -41 65 0 13 21 -8 35 -36z m-2700 -9 c5 -17 4 -22 -3 -15 -5 6 -13
21 -17 35 -5 17 -4 22 3 15 5 -5 13 -21 17 -35z m703 27 c14 -16 4 -57 -13
-57 -24 0 -37 27 -25 49 12 24 23 26 38 8z m-1108 -49 c0 -28 -17 -30 -46 -5
-18 16 -25 30 -21 40 6 15 9 15 37 -1 16 -9 30 -25 30 -34z m920 37 c0 -8 -4
-15 -10 -15 -5 0 -7 7 -4 15 4 8 8 15 10 15 2 0 4 -7 4 -15z m418 3 c14 -14
15 -47 2 -68 -14 -22 -46 1 -42 31 5 50 17 60 40 37z m307 -29 c-5 -49 -9 -54
-30 -45 -16 6 -16 12 -5 84 0 1 9 2 20 2 17 0 19 -5 15 -41z m54 -23 c-5 -17
-9 -32 -9 -33 0 -2 -6 -3 -14 -3 -17 0 -10 71 7 82 18 11 26 -12 16 -46z
m1375 13 l27 -41 -40 -36 c-73 -68 -148 -120 -163 -114 -5 1 -8 -2 -8 -6 0 -7
-67 -36 -80 -34 -3 0 -10 -4 -16 -9 -7 -5 -21 -12 -33 -14 -12 -3 -31 -8 -43
-11 -13 -3 -39 -8 -58 -11 -19 -3 -55 -8 -78 -13 -96 -17 -422 -9 -536 14 -11
3 -46 10 -76 15 -61 13 -228 57 -265 71 l-24 9 22 41 c24 44 28 45 122 21 22
-6 58 -13 80 -16 22 -3 51 -8 65 -11 14 -3 41 -7 60 -9 19 -2 35 -4 35 -5 0
-16 436 -19 503 -4 31 7 72 16 91 19 48 8 174 51 229 79 26 13 72 42 102 65
30 23 55 41 56 41 1 0 14 -18 28 -41z m-2819 9 c10 -15 11 -24 5 -26 -11 -4
-39 25 -40 41 0 15 19 6 35 -15z m-458 -13 c15 -13 24 -28 20 -31 -8 -9 -59
26 -65 44 -6 20 17 13 45 -13z m316 -3 c22 -20 22 -32 -1 -32 -23 0 -56 35
-47 50 7 11 19 6 48 -18z m267 -11 c-1 -13 -3 -13 -15 3 -19 26 -19 42 0 26 8
-7 15 -20 15 -29z m610 20 c-10 -21 -30 -37 -30 -26 0 14 21 45 31 45 6 0 6
-7 -1 -19z m187 8 c8 -8 8 -20 1 -40 -12 -34 -15 -35 -39 -13 -14 13 -16 20
-7 40 12 26 28 30 45 13z m233 -4 c18 -16 16 -60 -2 -71 -22 -14 -43 33 -32
69 7 21 13 21 34 2z m321 -12 c-12 -20 -14 -14 -5 12 4 9 9 14 11 11 3 -2 0
-13 -6 -23z m1448 -13 c11 -24 11 -24 -3 -6 -9 11 -16 24 -16 30 0 12 5 7 19
-24z m-3242 -13 c40 -36 4 -52 -37 -17 -14 12 -20 26 -16 35 6 18 18 14 53
-18z m281 0 c12 -13 19 -27 15 -30 -7 -8 -53 31 -53 45 0 15 16 8 38 -15z
m142 -29 c-1 -15 -40 29 -40 45 0 6 9 1 20 -11 11 -12 20 -27 20 -34z m891 28
c3 -23 -3 -41 -17 -56 -14 -13 -17 -13 -29 3 -13 19 -11 40 7 64 11 14 37 6
39 -11z m239 5 c5 -11 8 -27 5 -35 -3 -9 -7 -23 -10 -31 -4 -13 -8 -13 -25 -3
-22 14 -24 25 -10 62 11 31 25 33 40 7z m-420 -6 c15 -18 5 -65 -14 -65 -25 0
-37 25 -26 54 11 30 22 33 40 11z m-1328 -42 c19 -32 22 -26 -59 -117 -38 -43
-146 -195 -194 -273 -88 -142 -162 -324 -194 -478 -4 -16 -9 -79 -12 -140 -3
-60 -7 -112 -9 -114 -2 -2 -26 -6 -54 -9 -38 -3 -50 -1 -51 9 0 8 -3 23 -5 34
-8 33 -8 157 -1 210 6 41 19 95 41 170 42 140 204 430 306 545 17 19 42 49 56
65 15 17 51 56 81 88 58 62 64 63 95 10z m328 20 c20 -25 20 -28 5 -31 -17 -4
-65 34 -65 50 0 19 40 6 60 -19z m260 -36 c0 -5 -9 -2 -20 8 -11 10 -20 25
-20 34 1 12 5 10 20 -8 11 -13 20 -28 20 -34z m120 49 c0 -3 -4 -8 -10 -11 -5
-3 -10 -1 -10 4 0 6 5 11 10 11 6 0 10 -2 10 -4z m1115 -18 c-1 -13 -3 -33 -4
-45 -1 -29 -37 -31 -46 -4 -11 34 5 71 30 71 17 0 22 -5 20 -22z m1595 1 c18
-33 6 -42 -13 -9 -10 16 -14 30 -8 30 6 0 15 -9 21 -21z m-3277 -14 c29 -28
35 -45 14 -45 -17 0 -69 54 -60 63 10 11 17 9 46 -18z m295 6 c22 -18 29 -41
14 -41 -12 0 -52 39 -52 50 0 15 15 12 38 -9z m1142 4 c13 -16 2 -66 -17 -72
-16 -6 -43 25 -38 42 3 8 7 22 10 30 6 19 29 19 45 0z m-168 -41 c-5 -28 -32
-46 -49 -33 -16 14 -16 20 -3 54 10 26 12 26 33 12 12 -8 21 -23 19 -33z m473
34 c8 -22 -11 -73 -28 -76 -13 -3 -17 4 -17 23 0 47 33 86 45 53z m-1585 -53
c0 -24 -15 -24 -45 -1 -20 16 -26 28 -22 40 6 16 9 16 37 -4 16 -12 30 -28 30
-35z m1633 25 c-3 -10 -11 -25 -19 -31 -17 -14 -17 -11 -3 29 12 34 31 36 22
2z m-1368 -38 c-9 -9 -55 40 -48 51 4 6 16 -2 30 -18 13 -15 22 -30 18 -33z
m668 28 c-7 -25 -22 -35 -34 -23 -5 5 -2 17 8 30 20 25 33 21 26 -7z m415 18
c14 -14 15 -57 2 -78 -7 -12 -13 -12 -27 -4 -23 14 -27 33 -14 67 12 30 21 33
39 15z m1748 -25 c12 -29 11 -34 -21 -76 -122 -160 -391 -260 -695 -260 -80 0
-218 10 -264 19 -11 2 -38 6 -61 9 -106 16 -435 111 -458 134 -7 7 11 57 27
78 1 2 117 -25 206 -47 25 -7 56 -14 70 -16 14 -3 45 -10 70 -15 25 -6 68 -13
95 -15 28 -3 61 -7 75 -9 32 -6 338 -7 365 -2 11 3 46 8 77 11 31 4 83 14 115
22 32 9 63 17 68 18 79 21 227 111 275 168 21 25 41 18 56 -19z m-2974 -18 c7
-10 1 -25 -10 -25 -4 0 -19 11 -34 23 -21 18 -24 27 -16 35 11 11 39 -4 60
-33z m-320 18 c8 -10 18 -24 23 -31 12 -21 -30 7 -44 29 -14 24 1 25 21 2z
m561 -3 c3 -11 3 -20 1 -20 -2 0 -8 9 -14 20 -6 11 -7 20 -2 20 6 0 12 -9 15
-20z m645 -22 c2 -8 -6 -25 -16 -38 l-19 -24 -17 26 c-14 21 -15 30 -5 52 11
24 14 25 33 12 12 -7 22 -20 24 -28z m163 22 c15 -8 18 -17 13 -38 -9 -38 -19
-45 -43 -33 -23 13 -26 32 -11 62 12 22 15 23 41 9z m-1216 -49 c8 -20 1 -23
-28 -10 -27 12 -41 34 -31 50 6 10 50 -19 59 -40z m285 -6 c0 -7 -34 8 -48 22
-7 7 -10 18 -7 23 4 7 16 1 31 -15 13 -14 24 -28 24 -30z m1189 41 c7 -9 8
-22 3 -37 -5 -13 -7 -30 -5 -36 7 -20 -15 -15 -37 7 -11 11 -17 26 -15 35 3 8
7 22 10 30 6 19 29 19 44 1z m-1079 -40 c0 -5 -7 -1 -15 10 -8 10 -14 24 -14
29 0 6 6 1 14 -9 8 -11 15 -24 15 -30z m-581 3 l23 -31 -30 -42 c-241 -328
-368 -624 -371 -867 l-1 -56 -55 -13 c-30 -7 -58 -10 -63 -6 -12 13 -10 145 5
225 19 106 63 231 127 358 52 104 169 288 218 344 13 15 40 47 62 73 21 25 44
46 50 46 7 0 23 -14 35 -31z m311 -9 c15 -28 -1 -31 -38 -8 -26 16 -30 23 -21
34 13 16 43 4 59 -26z m1175 9 c4 -6 4 -25 1 -44 -5 -27 -10 -32 -27 -28 -27
7 -33 25 -25 68 6 31 9 34 26 25 10 -6 22 -15 25 -21z m1909 15 c10 -25 -1
-29 -14 -5 -6 12 -7 21 -1 21 5 0 12 -7 15 -16z m-2276 -6 c15 -15 15 -29 -3
-52 -13 -17 -15 -17 -31 -2 -14 15 -15 21 -4 42 15 27 21 29 38 12z m612 -22
c0 -19 -7 -42 -17 -51 -15 -16 -17 -16 -26 0 -15 27 1 85 23 85 16 0 20 -7 20
-34z m-1300 -11 c19 -23 4 -30 -25 -11 -30 20 -36 53 -7 37 10 -5 25 -17 32
-26z m116 18 c20 -27 16 -38 -6 -18 -20 18 -26 35 -14 35 4 0 13 -8 20 -17z
m754 2 c14 -17 4 -75 -14 -75 -15 0 -43 31 -41 45 7 42 33 57 55 30z m-1182
-11 c12 -8 26 -24 32 -34 9 -17 8 -19 -7 -13 -25 9 -42 23 -54 45 -12 22 -1
23 29 2z m1670 -5 c1 -8 -6 -26 -18 -39 -18 -21 -20 -21 -20 -4 1 52 30 85 38
43z m-221 -60 c-1 -29 -6 -39 -19 -39 -23 0 -47 36 -41 63 10 48 11 49 38 31
20 -13 24 -23 22 -55z m1807 33 c7 -25 4 -39 -17 -74 -25 -43 -71 -95 -117
-133 -43 -35 -170 -109 -170 -99 0 4 -6 2 -12 -3 -16 -12 -130 -49 -178 -57
-139 -25 -393 -26 -505 -3 -27 6 -103 19 -112 19 -5 0 -18 4 -31 9 -12 5 -33
11 -45 13 -12 2 -42 10 -67 17 -25 7 -47 13 -50 14 -40 9 -292 105 -304 116
-11 9 31 79 48 79 6 0 52 -14 101 -30 150 -50 248 -76 360 -95 17 -3 44 -7 60
-10 161 -27 402 -23 560 10 17 3 42 8 57 11 43 8 144 50 214 89 62 35 174 136
174 157 0 22 25 -1 34 -30z m-3096 -5 c9 -7 9 -13 2 -22 -9 -11 -17 -10 -40 2
-28 14 -38 32 -24 46 7 6 38 -7 62 -26z m247 3 c27 -30 12 -34 -15 -5 -13 14
-19 25 -13 25 5 0 18 -9 28 -20z m668 -1 c7 -11 7 -28 1 -49 l-9 -32 -27 21
c-26 21 -28 30 -13 64 9 21 34 19 48 -4z m192 -18 c3 -10 0 -30 -6 -44 -11
-24 -13 -25 -35 -10 -26 17 -29 29 -14 68 8 22 13 24 29 15 11 -5 22 -18 26
-29z m-998 7 c26 -24 29 -38 10 -38 -16 0 -57 37 -57 50 0 17 23 11 47 -12z
m700 -24 c8 -22 -6 -64 -22 -64 -8 0 -22 11 -31 25 -14 22 -15 30 -4 50 11 20
16 22 32 14 11 -6 22 -17 25 -25z m551 -34 c-6 -22 -13 -40 -17 -40 -21 1 -34
22 -33 55 2 50 9 57 36 40 22 -14 23 -19 14 -55z m-1566 31 l31 -29 -59 -98
c-32 -54 -61 -103 -63 -109 -2 -5 -7 -12 -11 -15 -9 -7 -120 -237 -120 -250 0
-6 -7 -24 -15 -40 -8 -16 -17 -37 -18 -47 -2 -10 -7 -25 -10 -33 -6 -16 -23
-100 -33 -164 -9 -58 -13 -78 -18 -83 -11 -12 -107 -30 -112 -22 -5 9 -1 75
12 169 14 104 143 422 198 490 7 8 28 40 46 70 18 30 36 57 39 60 4 3 27 33
50 68 24 34 46 62 48 62 2 0 18 -13 35 -29z m162 -17 c24 -24 8 -36 -22 -17
-32 21 -43 34 -36 45 6 9 35 -5 58 -28z m271 16 c15 -16 15 -20 3 -20 -8 0
-23 9 -33 20 -15 16 -15 20 -3 20 8 0 23 -9 33 -20z m759 -9 c18 -20 15 -74
-4 -86 -16 -10 -50 37 -46 62 9 47 23 54 50 24z m183 1 c19 -14 22 -23 17 -54
-7 -41 -23 -48 -48 -22 -17 16 -19 35 -10 72 7 26 12 27 41 4z m-1089 -11 c23
-20 29 -41 12 -41 -16 0 -58 30 -64 46 -8 20 24 17 52 -5z m1349 2 c2 -6 -8
-24 -22 -39 l-26 -29 3 30 c4 47 34 72 45 38z m-1107 -13 c11 -11 16 -20 12
-20 -5 0 -17 9 -27 20 -10 11 -15 20 -12 20 4 0 16 -9 27 -20z m-122 -6 c23
-16 29 -34 13 -34 -6 0 -23 11 -38 25 -32 28 -12 35 25 9z m2932 -34 c0 -56
-79 -177 -161 -245 -86 -72 -232 -139 -347 -160 -15 -2 -49 -9 -77 -14 -48
-10 -324 -8 -375 2 -14 3 -47 8 -75 12 -90 12 -285 64 -393 106 -135 52 -267
113 -276 128 -4 6 2 27 14 46 l21 34 62 -23 c34 -13 76 -30 92 -36 17 -7 35
-14 41 -15 7 -2 38 -12 70 -23 65 -23 192 -58 239 -67 17 -3 46 -8 65 -11 19
-3 37 -7 40 -9 15 -9 160 -19 275 -19 129 -1 217 7 285 23 56 14 154 43 165
50 6 3 12 6 15 6 3 0 27 12 54 25 66 34 187 138 222 193 30 46 44 45 44 -3z
m-3215 14 l30 -25 -32 15 c-17 9 -35 20 -38 26 -11 18 10 10 40 -16z m950 14
c22 -10 25 -16 20 -47 -8 -49 -16 -54 -46 -28 -25 23 -26 27 -14 65 9 26 7 25
40 10z m193 -18 c44 -41 19 -116 -27 -81 -20 16 -22 23 -16 59 8 48 13 50 43
22z m195 2 c17 -18 16 -67 -1 -84 -15 -15 -53 27 -50 55 7 47 25 58 51 29z
m222 8 c-3 -5 -11 -10 -16 -10 -6 0 -7 5 -4 10 3 6 11 10 16 10 6 0 7 -4 4
-10z m-1441 -11 c33 -16 42 -39 14 -39 -22 0 -58 26 -58 42 0 11 14 10 44 -3z
m270 -4 c11 -8 15 -15 10 -15 -6 0 -19 7 -30 15 -10 8 -14 14 -9 14 6 0 19 -6
29 -14z m378 -7 c-7 -7 -12 -8 -12 -2 0 14 12 26 19 19 2 -3 -1 -11 -7 -17z
m75 -5 c17 -25 18 -32 8 -63 l-12 -35 -26 29 c-30 32 -31 35 -17 70 12 33 21
33 47 -1z m-857 -19 c12 -14 11 -23 -14 -68 -126 -229 -180 -361 -230 -556
-14 -52 -25 -92 -26 -88 0 4 -15 -1 -32 -11 -37 -20 -82 -33 -90 -26 -3 3 1
31 8 63 7 31 15 68 18 82 15 70 28 115 47 158 12 26 28 63 36 82 58 136 192
373 221 389 18 10 41 1 62 -25z m265 20 c14 -9 25 -23 25 -30 0 -19 -7 -18
-41 7 -48 34 -33 55 16 23z m122 -24 c14 -11 20 -20 14 -20 -19 0 -51 19 -51
30 0 15 9 12 37 -10z m1027 14 c23 -9 19 -29 -9 -48 -27 -18 -30 -12 -19 32 7
25 6 24 28 16z m-348 -49 c3 -12 0 -33 -6 -49 -9 -25 -12 -27 -28 -15 -38 30
-44 54 -24 86 12 19 17 20 33 10 11 -7 22 -21 25 -32z m-949 10 c38 -33 8 -33
-32 0 -22 18 -26 24 -13 25 9 0 30 -11 45 -25z m1129 4 c18 -17 21 -26 14 -44
-5 -13 -6 -26 -3 -29 3 -3 -2 -9 -12 -12 -26 -11 -57 30 -49 65 12 49 17 51
50 20z m-999 -11 c25 -24 30 -37 11 -34 -19 3 -68 37 -68 47 0 17 34 9 57 -13z
m513 12 c0 -5 -9 -35 -21 -67 -11 -32 -23 -64 -25 -72 -3 -11 -12 -7 -34 14
-17 16 -30 33 -30 39 0 15 82 96 97 96 7 0 13 -4 13 -10z m-406 -11 c22 -10
44 -39 30 -39 -12 0 -64 35 -64 42 0 11 4 10 34 -3z m600 -77 c-10 -43 -21
-48 -49 -22 -27 26 -31 44 -14 87 l10 28 30 -33 c23 -26 28 -38 23 -60z m530
73 c-4 -8 -10 -15 -15 -15 -4 0 -6 7 -3 15 4 8 10 15 15 15 4 0 6 -7 3 -15z
m-1399 -21 c30 -20 28 -32 -31 -153 -52 -107 -129 -309 -139 -365 -8 -39 -38
-67 -109 -99 l-38 -17 7 46 c23 156 226 603 273 604 7 0 23 -7 37 -16z m370 6
c3 -6 -1 -7 -9 -4 -18 7 -21 14 -7 14 6 0 13 -4 16 -10z m2791 -43 c-54 -233
-318 -420 -639 -453 -88 -9 -289 -4 -347 9 -8 2 -37 7 -65 11 -93 14 -271 65
-391 111 -147 57 -315 138 -339 164 -16 19 -16 21 5 50 12 17 26 31 32 31 6 0
49 -18 95 -40 47 -22 88 -40 93 -40 4 0 32 -11 61 -24 30 -13 59 -25 64 -26 6
-1 20 -6 32 -11 20 -7 203 -59 228 -63 6 -2 35 -8 65 -14 93 -20 119 -22 300
-26 194 -4 282 7 408 50 161 56 277 141 354 261 23 35 44 63 48 63 5 0 3 -24
-4 -53z m-2412 0 c7 -11 4 -32 -10 -74 -21 -62 -38 -70 -76 -36 -15 13 -15 20
-4 56 7 23 19 54 26 70 12 25 15 26 34 14 11 -8 24 -21 30 -30z m485 34 c18
-12 8 -37 -18 -44 -22 -5 -27 7 -15 37 7 18 13 19 33 7z m-1094 -26 c19 -15
24 -24 15 -25 -16 0 -80 36 -80 45 0 14 38 2 65 -20z m120 0 c26 -21 28 -24
10 -25 -26 0 -67 28 -60 41 9 14 17 11 50 -16z m779 19 c27 -10 37 -39 25 -73
-13 -36 -22 -38 -49 -11 -21 21 -23 32 -14 68 7 23 13 26 38 16z m300 -9 c-6
-16 -24 -21 -24 -7 0 11 11 22 21 22 5 0 6 -7 3 -15z m-958 -20 c15 -11 16
-14 3 -15 -8 0 -24 7 -35 15 -15 11 -16 14 -3 15 8 0 24 -7 35 -15z m570 -51
c14 -55 -29 -87 -59 -43 -11 15 -12 29 -5 59 10 38 11 39 34 23 13 -8 27 -26
30 -39z m444 46 c0 -5 -7 -10 -16 -10 -8 0 -12 5 -9 10 3 6 10 10 16 10 5 0 9
-4 9 -10z m-1274 -29 l21 -15 -31 -61 c-33 -64 -40 -80 -90 -219 -18 -49 -42
-98 -53 -110 -23 -24 -103 -67 -114 -61 -20 13 144 421 194 483 11 14 41 7 73
-17z m109 3 c26 -10 34 -19 27 -26 -11 -11 -72 16 -72 32 0 13 1 13 45 -6z
m128 -1 c18 -9 27 -18 20 -20 -12 -4 -73 23 -73 32 0 10 21 5 53 -12z m774 -9
c2 -6 -5 -14 -16 -17 -24 -6 -31 0 -24 19 6 17 34 15 40 -2z m117 2 c-7 -18
-32 -28 -39 -16 -3 5 3 13 12 19 25 14 33 13 27 -3z m-415 -77 c-9 -18 -62
-35 -78 -25 -11 7 2 71 20 92 11 13 16 11 40 -17 21 -25 25 -37 18 -50z m479
49 c-16 -24 -48 -37 -48 -19 0 15 30 41 47 41 14 0 14 -2 1 -22z m1867 13 c-3
-5 -9 -32 -15 -59 -24 -126 -123 -268 -245 -352 -95 -64 -235 -115 -385 -138
-87 -13 -382 -4 -409 13 -4 2 -25 6 -49 10 -60 9 -251 66 -358 108 -146 56
-434 206 -434 225 0 11 54 62 66 62 7 0 38 -13 70 -29 144 -71 282 -128 404
-168 72 -23 232 -63 274 -69 21 -2 42 -7 46 -9 12 -8 159 -19 245 -18 232 0
420 51 565 152 67 47 160 153 191 217 16 35 32 64 35 64 3 0 3 -4 -1 -9z
m-2815 -36 c9 -10 7 -13 -7 -10 -10 2 -19 4 -20 4 -2 1 -6 1 -10 2 -12 1 -33
20 -33 30 0 11 56 -10 70 -26z m-132 1 c12 -11 11 -20 -6 -57 -10 -24 -29 -72
-42 -107 -20 -56 -29 -68 -79 -101 -83 -56 -80 -55 -74 -20 4 29 68 188 109
272 17 35 21 38 49 33 16 -4 36 -13 43 -20z m770 -1 c-4 -11 -28 -16 -28 -6 0
12 13 22 23 18 5 -1 7 -7 5 -12z m147 5 c-3 -4 -14 -10 -25 -13 -16 -4 -19 -2
-11 7 11 13 43 18 36 6z m198 -15 c-3 -9 -8 -14 -10 -11 -3 3 -2 9 2 15 9 16
15 13 8 -4z m-113 -11 c0 -8 -62 -35 -68 -29 -11 10 37 45 53 38 8 -3 15 -7
15 -9z m-913 -6 c18 -7 33 -17 33 -23 0 -21 -134 -145 -144 -134 -8 8 56 169
67 169 6 0 26 -5 44 -12z m823 -19 c0 -5 -7 -9 -15 -9 -15 0 -20 12 -9 23 8 8
24 -1 24 -14z m129 -25 c-13 -14 -25 -20 -27 -14 -5 15 17 40 36 40 12 0 10
-6 -9 -26z m-244 -5 c-8 -12 -55 -12 -55 0 0 10 39 20 53 13 4 -2 5 -8 2 -13z
m65 11 c0 -5 -4 -10 -9 -10 -6 0 -13 5 -16 10 -3 6 1 10 9 10 9 0 16 -4 16
-10z m117 -36 c-6 -7 -37 7 -37 16 0 15 35 16 38 2 2 -7 2 -16 -1 -18z m-84
-9 c-7 -20 -51 -31 -66 -16 -14 14 0 28 33 33 32 5 40 1 33 -17z m136 -17 c-9
-16 -14 -19 -17 -9 -2 7 2 17 9 22 20 13 21 11 8 -13z m-358 -16 c-7 -2 -18 1
-23 6 -8 8 -4 9 13 5 13 -4 18 -8 10 -11z m284 -21 c-4 -14 -15 -21 -31 -21
-32 0 -31 16 4 34 32 17 36 15 27 -13z m1959 -32 c-38 -126 -146 -265 -271
-345 -50 -33 -169 -84 -228 -99 -31 -7 -36 -8 -117 -23 -63 -12 -278 -13 -348
-1 -132 21 -131 21 -220 44 -146 37 -243 74 -410 157 -160 80 -266 140 -327
188 l-22 17 33 37 33 37 54 -32 c131 -77 389 -200 454 -215 6 -2 35 -12 65
-23 30 -12 65 -21 77 -21 12 0 24 -4 27 -9 3 -5 26 -12 52 -16 25 -3 56 -8 67
-11 12 -2 36 -6 52 -9 17 -2 44 -7 60 -10 44 -9 290 -10 365 -2 108 13 221 45
308 88 64 31 100 58 165 123 93 94 95 97 120 150 25 53 30 41 11 -25z m-2145
42 c7 -5 12 -13 10 -18 -5 -12 -69 4 -69 17 0 12 40 13 59 1z m-109 -21 c24
-18 24 -19 3 -14 -12 4 -28 12 -34 20 -17 20 2 17 31 -6z m218 3 c5 -18 -10
-16 -34 2 -18 15 -18 15 5 13 14 -2 26 -9 29 -15z m-214 -60 c3 -7 3 -13 0
-13 -12 0 -64 42 -64 51 0 13 58 -21 64 -38z m-129 -4 c22 -41 11 -36 -14 7
-12 19 -16 32 -11 29 6 -3 17 -19 25 -36z m229 25 c15 -14 13 -38 -2 -31 -67
30 -80 47 -38 47 14 0 32 -7 40 -16z m-342 -39 c3 -13 2 -22 -2 -20 -4 3 -10
16 -12 30 -3 13 -2 22 2 20 4 -3 10 -16 12 -30z m91 -20 c31 -64 33 -72 12
-55 -8 7 -15 17 -15 22 0 5 -9 27 -19 48 -11 22 -16 40 -12 40 4 0 19 -25 34
-55z m340 49 c24 -9 9 -44 -19 -44 -23 0 -49 31 -37 44 8 8 37 8 56 0z m87 -4
c0 -5 -2 -10 -4 -10 -3 0 -8 5 -11 10 -3 6 -1 10 4 10 6 0 11 -4 11 -10z
m-576 -197 c2 -122 -2 -197 -11 -237 -27 -118 -60 -105 -36 13 7 36 15 109 19
161 3 52 7 118 9 145 2 28 4 63 4 79 1 16 4 27 7 23 3 -3 7 -86 8 -184z m268
155 c38 -45 39 -65 2 -30 -40 37 -58 62 -43 62 7 0 26 -15 41 -32z m92 12 c14
-5 30 -18 36 -30 9 -17 8 -20 -8 -20 -22 0 -62 32 -62 49 0 13 2 14 34 1z
m186 0 c0 -5 -4 -10 -10 -10 -5 0 -10 5 -10 10 0 6 5 10 10 10 6 0 10 -4 10
-10z m-623 -82 c-10 -106 -19 -162 -39 -233 -6 -22 -13 -46 -15 -52 -7 -28
-11 -40 -28 -80 -10 -24 -22 -43 -26 -43 -15 0 -15 36 1 65 9 17 22 50 29 75
7 25 17 56 21 70 16 48 50 208 50 234 0 14 3 26 6 26 4 0 4 -28 1 -62z m218
-25 c9 -27 15 -68 13 -89 -3 -35 -6 -27 -30 63 -16 56 -28 105 -28 110 0 18
30 -37 45 -84z m337 71 c11 -10 -4 -42 -23 -47 -23 -6 -42 15 -33 37 6 15 44
22 56 10z m58 -3 c0 -5 -7 -14 -15 -21 -12 -10 -15 -10 -15 2 0 8 3 18 7 21 9
10 23 9 23 -2z m-294 -23 c36 -41 41 -53 35 -78 -6 -23 -8 -22 -32 20 -45 78
-46 107 -3 58z m-350 -5 c-3 -10 -7 -34 -10 -54 -3 -20 -10 -49 -16 -65 -6
-16 -11 -31 -11 -34 2 -15 -51 -170 -59 -175 -6 -3 -10 -5 -10 -3 1 7 41 150
65 228 14 47 27 93 28 103 1 9 5 17 10 17 5 0 6 -8 3 -17z m490 -35 c6 -19 -2
-38 -16 -38 -18 0 -58 52 -53 70 5 17 7 17 34 2 16 -10 32 -25 35 -34z m-548
-40 c-11 -40 -20 -78 -20 -85 -1 -7 -5 -10 -9 -7 -5 2 -4 16 1 29 5 14 7 25 4
25 -3 0 -2 6 3 13 4 6 8 14 9 17 3 17 17 66 21 73 12 21 9 0 -9 -65z m127 5
c-14 -156 -24 -225 -32 -233 -10 -10 13 245 23 262 10 16 12 7 9 -29z m284
-37 c11 -22 18 -52 16 -66 -1 -14 -3 -32 -4 -39 -3 -39 -53 72 -66 150 -6 33
-6 33 14 15 11 -10 29 -37 40 -60z m211 56 c0 -15 -38 -44 -48 -38 -19 12 -1
46 24 46 13 0 24 -4 24 -8z m-741 -111 c-28 -56 -54 -100 -56 -97 -6 5 6 30
67 144 52 98 45 66 -11 -47z m-8 66 c-10 -9 -11 -8 -5 6 3 10 9 15 12 12 3 -3
0 -11 -7 -18z m638 -1 c19 -20 20 -27 10 -50 -11 -24 -14 -25 -30 -10 -29 26
-36 84 -10 84 4 0 17 -11 30 -24z m-566 -23 c-12 -35 -96 -208 -110 -228 -33
-44 -3 34 53 140 53 99 71 127 57 88z m-343 4 c0 -2 -10 -12 -22 -23 l-23 -19
19 23 c18 21 26 27 26 19z m135 -7 c-3 -5 -12 -10 -18 -10 -7 0 -6 4 3 10 19
12 23 12 15 0z m116 -13 c-10 -9 -11 -8 -5 6 3 10 9 15 12 12 3 -3 0 -11 -7
-18z m-410 -20 c-10 -9 -11 -8 -5 6 3 10 9 15 12 12 3 -3 0 -11 -7 -18z m77
18 c-19 -19 -113 -85 -122 -85 -5 0 19 20 55 45 57 40 82 55 67 40z m125 -27
c-23 -30 -103 -103 -103 -94 0 8 109 116 116 116 3 0 -3 -10 -13 -22z m77 -28
c-31 -39 -49 -54 -33 -27 14 25 58 74 62 71 2 -2 -11 -21 -29 -44z m65 23
c-34 -54 -98 -133 -103 -128 -3 2 21 39 53 80 57 75 83 99 50 48z m-469 -18
c-11 -8 -24 -15 -30 -15 -5 0 -1 7 10 15 10 8 24 14 29 14 6 0 1 -6 -9 -14z
m53 -9 c-14 -14 -112 -66 -116 -62 -5 5 97 66 111 66 5 0 7 -2 5 -4z m87 -36
c-57 -40 -79 -51 -54 -27 32 31 84 67 97 67 8 0 -11 -18 -43 -40z m146 -32
c-67 -68 -77 -58 -11 11 28 29 53 50 57 47 3 -4 -17 -30 -46 -58z m147 -30
c-47 -69 -68 -93 -74 -86 -3 3 21 41 53 86 66 94 84 94 21 0z m-539 63 c0 -9
-96 -52 -114 -50 -6 0 16 14 49 29 70 34 65 32 65 21z m136 -20 c-23 -25 -117
-76 -111 -59 3 7 31 27 63 45 68 38 70 38 48 14z m144 4 c-22 -26 -91 -78 -96
-72 -3 3 18 24 46 46 54 43 71 52 50 26z m435 -27 c-18 -61 -80 -166 -91 -155
-8 8 77 177 89 177 5 0 5 -10 2 -22z m-725 -7 c0 -8 -89 -51 -106 -51 -15 0
15 23 53 41 44 20 53 22 53 10z m431 -8 c-12 -23 -91 -96 -97 -90 -6 5 88 106
99 107 4 0 3 -8 -2 -17z m-571 -2 c0 -11 -53 -32 -95 -38 -41 -6 -24 8 33 29
56 20 62 21 62 9z m300 1 c0 -11 -99 -66 -106 -59 -6 6 18 25 62 47 46 23 44
22 44 12z m115 -29 c-52 -46 -84 -67 -91 -60 -6 6 8 19 71 66 56 41 68 38 20
-6z m304 -15 c-21 -41 -80 -108 -90 -102 -8 4 28 59 82 122 17 20 22 7 8 -20z
m-579 3 c0 -11 -88 -46 -96 -38 -7 6 64 46 84 47 6 0 12 -4 12 -9z m868 -18
c3 -34 -25 -100 -46 -108 -8 -3 -16 -4 -18 -3 -4 5 50 138 56 138 3 0 7 -12 8
-27z m-1152 8 c-4 -5 -24 -12 -46 -16 -51 -9 -54 -8 -58 4 -3 9 26 17 81 20
16 0 26 -3 23 -8z m144 0 c0 -12 -55 -31 -88 -31 -32 0 -24 8 25 25 45 17 63
18 63 6z m287 -9 c-22 -24 -97 -66 -97 -54 0 10 89 72 104 72 5 0 2 -8 -7 -18z
m163 13 c0 -10 -66 -67 -92 -81 -44 -23 -25 6 27 41 24 17 45 33 45 38 0 8 20
10 20 2z m140 0 c0 -12 -97 -105 -103 -98 -4 4 14 28 40 55 42 43 63 57 63 43z
m-877 -35 c-13 -13 -78 -16 -81 -5 -1 6 12 12 30 15 37 7 63 1 51 -10z m-363
-2 c0 -4 -9 -8 -20 -8 -11 0 -20 4 -20 8 0 4 9 8 20 8 11 0 20 -4 20 -8z m800
3 c0 -9 -82 -51 -100 -51 -29 0 1 28 32 30 4 1 20 7 35 15 33 18 33 18 33 6z
m711 -39 c-30 -58 -48 -78 -59 -67 -7 7 2 28 24 63 39 59 65 62 35 4z m-1406
27 c4 -5 -8 -9 -25 -9 -17 0 -29 4 -26 8 7 11 45 12 51 1z m135 1 c0 -5 -21
-10 -47 -10 -35 0 -44 3 -33 10 20 13 80 13 80 0z m270 1 c17 -3 -23 -21 -59
-26 -39 -6 -43 -5 -32 9 16 19 45 24 91 17z m866 -29 c-18 -33 -76 -90 -76
-74 0 17 73 110 82 105 5 -2 2 -16 -6 -31z m-754 7 c-24 -11 -51 -18 -60 -16
-23 5 44 36 78 36 21 -1 18 -4 -18 -20z m328 11 c0 -14 -77 -63 -92 -58 -7 3
8 19 36 36 56 36 56 36 56 22z m254 -61 c-21 -22 -40 -35 -43 -28 -2 6 14 29
35 50 21 22 40 35 43 28 2 -6 -14 -29 -35 -50z m-824 42 c0 -5 -16 -12 -35
-15 -41 -8 -70 3 -39 15 27 11 74 11 74 0z m693 -21 c-18 -17 -37 -30 -42 -30
-6 0 -11 -4 -11 -10 0 -5 -4 -10 -10 -10 -22 0 -8 21 32 50 53 39 72 39 31 0z
m-943 10 c26 -16 3 -22 -27 -6 -23 13 -24 15 -8 15 11 1 27 -3 35 -9z m119 1
c19 -12 -1 -22 -38 -19 -39 3 -42 28 -3 28 15 0 33 -4 41 -9z m551 -6 c-20
-19 -90 -48 -90 -36 0 5 9 13 20 16 11 3 20 10 20 15 0 8 21 17 50 19 13 1 13
-1 0 -14z m-276 -5 c-5 -5 -29 -12 -54 -15 -40 -6 -43 -5 -28 8 19 15 97 22
82 7z m136 0 c0 -12 -43 -30 -72 -30 -27 0 -16 12 25 27 41 15 47 15 47 3z
m300 -9 c0 -14 -78 -63 -92 -59 -7 3 8 19 36 36 55 35 56 36 56 23z m584 -6
c6 -16 -26 -55 -44 -55 -10 0 21 69 31 70 4 0 9 -7 13 -15z m-1148 -8 c8 -7 6
-8 -36 -12 -35 -4 -50 8 -20 15 29 8 47 7 56 -3z m714 -5 c0 -15 -76 -69 -85
-60 -6 6 8 22 39 46 30 23 46 28 46 14z m139 -20 c-13 -21 -67 -57 -75 -49 -2
2 14 21 37 41 42 39 59 42 38 8z m135 -14 c-23 -25 -54 -42 -54 -29 0 18 63
77 68 63 2 -7 -4 -22 -14 -34z m-1108 25 c-10 -10 -46 -11 -46 -1 0 4 12 8 27
8 14 0 23 -3 19 -7z m259 -3 c3 -5 -7 -12 -22 -16 -15 -3 -34 -7 -40 -10 -23
-6 -14 16 10 26 30 12 45 12 52 0z m269 -8 c-22 -21 -74 -37 -74 -23 0 10 59
40 79 41 11 0 9 -5 -5 -18z m-124 -1 c0 -10 -35 -21 -69 -21 -15 0 -21 4 -15
9 18 17 84 27 84 12z m285 -24 c-4 -8 -20 -21 -36 -27 -51 -22 -47 2 6 32 33
19 38 18 30 -5z m-536 9 c-10 -11 -69 -16 -69 -6 0 5 17 10 37 10 20 0 34 -2
32 -4z m687 -23 c-5 -16 -55 -47 -63 -39 -2 2 11 17 29 34 33 34 44 35 34 5z
m-568 8 c10 -6 6 -11 -17 -19 -32 -11 -40 -5 -19 16 14 14 19 15 36 3z m286
-4 c-2 -7 -18 -18 -34 -24 -25 -9 -30 -9 -30 3 0 8 9 14 19 14 11 0 23 5 26
10 9 15 25 12 19 -3z m590 0 c-2 -7 -14 -18 -25 -25 -18 -12 -19 -11 -10 7 9
16 17 23 38 30 1 1 0 -5 -3 -12z m-734 -11 c-11 -15 -70 -27 -70 -16 0 9 38
26 62 27 15 2 17 -1 8 -11z m562 -17 c-19 -17 -37 -27 -40 -24 -8 8 44 55 61
55 7 0 -3 -14 -21 -31z m-819 4 c-7 -2 -19 -2 -25 0 -7 3 -2 5 12 5 14 0 19
-2 13 -5z m560 0 c7 -7 -38 -33 -57 -33 -6 1 0 10 13 20 25 21 34 24 44 13z
m-407 -12 c-8 -12 -46 -21 -46 -11 0 9 18 18 38 19 7 1 11 -3 8 -8z m549 -11
c-10 -11 -25 -20 -33 -20 -9 0 -6 7 9 20 31 25 47 26 24 0z m-415 0 c0 -5 -12
-10 -27 -10 -22 0 -25 2 -13 10 20 13 40 13 40 0z m137 -1 c-24 -14 -57 -20
-57 -9 0 11 19 18 50 19 22 0 23 -1 7 -10z m443 7 c0 -2 -7 -7 -16 -10 -8 -3
-12 -2 -9 4 6 10 25 14 25 6z m-285 -26 c-3 -5 -16 -10 -28 -9 -21 0 -21 1 -2
9 28 12 37 12 30 0z m-131 -12 c-3 -4 -9 -8 -15 -8 -5 0 -9 4 -9 8 0 5 7 9 15
9 8 0 12 -4 9 -9z m-137 -4 c-3 -3 -12 -4 -19 -1 -8 3 -5 6 6 6 11 1 17 -2 13
-5z"/>
</g>
</svg>
